<?xml version="1.0" encoding="utf-8" standalone="no"?>
<!DOCTYPE svg PUBLIC "-//W3C//DTD SVG 1.1//EN"
  "http://www.w3.org/Graphics/SVG/1.1/DTD/svg11.dtd">
<!-- Created with matplotlib (https://matplotlib.org/) -->
<svg height="371.52pt" version="1.1" viewBox="0 0 789.12 371.52" width="789.12pt" xmlns="http://www.w3.org/2000/svg" xmlns:xlink="http://www.w3.org/1999/xlink">
 <metadata>
  <rdf:RDF xmlns:cc="http://creativecommons.org/ns#" xmlns:dc="http://purl.org/dc/elements/1.1/" xmlns:rdf="http://www.w3.org/1999/02/22-rdf-syntax-ns#">
   <cc:Work>
    <dc:type rdf:resource="http://purl.org/dc/dcmitype/StillImage"/>
    <dc:date>2021-04-18T16:06:58.661153</dc:date>
    <dc:format>image/svg+xml</dc:format>
    <dc:creator>
     <cc:Agent>
      <dc:title>Matplotlib v3.3.3, https://matplotlib.org/</dc:title>
     </cc:Agent>
    </dc:creator>
   </cc:Work>
  </rdf:RDF>
 </metadata>
 <defs>
  <style type="text/css">*{stroke-linecap:butt;stroke-linejoin:round;}</style>
 </defs>
 <g id="figure_1">
  <g id="patch_1">
   <path d="M 0 371.52 
L 789.12 371.52 
L 789.12 0 
L 0 0 
z
" style="fill:#ffffff;"/>
  </g>
  <g id="axes_1">
   <g id="patch_2">
    <path d="M 98.64 330.6528 
L 376.625455 330.6528 
L 376.625455 44.5824 
L 98.64 44.5824 
z
" style="fill:#ffffff;"/>
   </g>
   <g id="matplotlib.axis_1">
    <g id="xtick_1">
     <g id="line2d_1">
      <defs>
       <path d="M 0 0 
L 0 3.5 
" id="m24fe29006c" style="stroke:#000000;stroke-width:0.8;"/>
      </defs>
      <g>
       <use style="stroke:#000000;stroke-width:0.8;" x="111.275702" xlink:href="#m24fe29006c" y="330.6528"/>
      </g>
     </g>
     <g id="text_1">
      <!-- 0 -->
      <g transform="translate(108.094452 345.251238)scale(0.1 -0.1)">
       <defs>
        <path d="M 31.78125 66.40625 
Q 24.171875 66.40625 20.328125 58.90625 
Q 16.5 51.421875 16.5 36.375 
Q 16.5 21.390625 20.328125 13.890625 
Q 24.171875 6.390625 31.78125 6.390625 
Q 39.453125 6.390625 43.28125 13.890625 
Q 47.125 21.390625 47.125 36.375 
Q 47.125 51.421875 43.28125 58.90625 
Q 39.453125 66.40625 31.78125 66.40625 
z
M 31.78125 74.21875 
Q 44.046875 74.21875 50.515625 64.515625 
Q 56.984375 54.828125 56.984375 36.375 
Q 56.984375 17.96875 50.515625 8.265625 
Q 44.046875 -1.421875 31.78125 -1.421875 
Q 19.53125 -1.421875 13.0625 8.265625 
Q 6.59375 17.96875 6.59375 36.375 
Q 6.59375 54.828125 13.0625 64.515625 
Q 19.53125 74.21875 31.78125 74.21875 
z
" id="DejaVuSans-48"/>
       </defs>
       <use xlink:href="#DejaVuSans-48"/>
      </g>
     </g>
    </g>
    <g id="xtick_2">
     <g id="line2d_2">
      <g>
       <use style="stroke:#000000;stroke-width:0.8;" x="145.197051" xlink:href="#m24fe29006c" y="330.6528"/>
      </g>
     </g>
     <g id="text_2">
      <!-- 20 -->
      <g transform="translate(138.834551 345.251238)scale(0.1 -0.1)">
       <defs>
        <path d="M 19.1875 8.296875 
L 53.609375 8.296875 
L 53.609375 0 
L 7.328125 0 
L 7.328125 8.296875 
Q 12.9375 14.109375 22.625 23.890625 
Q 32.328125 33.6875 34.8125 36.53125 
Q 39.546875 41.84375 41.421875 45.53125 
Q 43.3125 49.21875 43.3125 52.78125 
Q 43.3125 58.59375 39.234375 62.25 
Q 35.15625 65.921875 28.609375 65.921875 
Q 23.96875 65.921875 18.8125 64.3125 
Q 13.671875 62.703125 7.8125 59.421875 
L 7.8125 69.390625 
Q 13.765625 71.78125 18.9375 73 
Q 24.125 74.21875 28.421875 74.21875 
Q 39.75 74.21875 46.484375 68.546875 
Q 53.21875 62.890625 53.21875 53.421875 
Q 53.21875 48.921875 51.53125 44.890625 
Q 49.859375 40.875 45.40625 35.40625 
Q 44.1875 33.984375 37.640625 27.21875 
Q 31.109375 20.453125 19.1875 8.296875 
z
" id="DejaVuSans-50"/>
       </defs>
       <use xlink:href="#DejaVuSans-50"/>
       <use x="63.623047" xlink:href="#DejaVuSans-48"/>
      </g>
     </g>
    </g>
    <g id="xtick_3">
     <g id="line2d_3">
      <g>
       <use style="stroke:#000000;stroke-width:0.8;" x="179.1184" xlink:href="#m24fe29006c" y="330.6528"/>
      </g>
     </g>
     <g id="text_3">
      <!-- 40 -->
      <g transform="translate(172.7559 345.251238)scale(0.1 -0.1)">
       <defs>
        <path d="M 37.796875 64.3125 
L 12.890625 25.390625 
L 37.796875 25.390625 
z
M 35.203125 72.90625 
L 47.609375 72.90625 
L 47.609375 25.390625 
L 58.015625 25.390625 
L 58.015625 17.1875 
L 47.609375 17.1875 
L 47.609375 0 
L 37.796875 0 
L 37.796875 17.1875 
L 4.890625 17.1875 
L 4.890625 26.703125 
z
" id="DejaVuSans-52"/>
       </defs>
       <use xlink:href="#DejaVuSans-52"/>
       <use x="63.623047" xlink:href="#DejaVuSans-48"/>
      </g>
     </g>
    </g>
    <g id="xtick_4">
     <g id="line2d_4">
      <g>
       <use style="stroke:#000000;stroke-width:0.8;" x="213.039749" xlink:href="#m24fe29006c" y="330.6528"/>
      </g>
     </g>
     <g id="text_4">
      <!-- 60 -->
      <g transform="translate(206.677249 345.251238)scale(0.1 -0.1)">
       <defs>
        <path d="M 33.015625 40.375 
Q 26.375 40.375 22.484375 35.828125 
Q 18.609375 31.296875 18.609375 23.390625 
Q 18.609375 15.53125 22.484375 10.953125 
Q 26.375 6.390625 33.015625 6.390625 
Q 39.65625 6.390625 43.53125 10.953125 
Q 47.40625 15.53125 47.40625 23.390625 
Q 47.40625 31.296875 43.53125 35.828125 
Q 39.65625 40.375 33.015625 40.375 
z
M 52.59375 71.296875 
L 52.59375 62.3125 
Q 48.875 64.0625 45.09375 64.984375 
Q 41.3125 65.921875 37.59375 65.921875 
Q 27.828125 65.921875 22.671875 59.328125 
Q 17.53125 52.734375 16.796875 39.40625 
Q 19.671875 43.65625 24.015625 45.921875 
Q 28.375 48.1875 33.59375 48.1875 
Q 44.578125 48.1875 50.953125 41.515625 
Q 57.328125 34.859375 57.328125 23.390625 
Q 57.328125 12.15625 50.6875 5.359375 
Q 44.046875 -1.421875 33.015625 -1.421875 
Q 20.359375 -1.421875 13.671875 8.265625 
Q 6.984375 17.96875 6.984375 36.375 
Q 6.984375 53.65625 15.1875 63.9375 
Q 23.390625 74.21875 37.203125 74.21875 
Q 40.921875 74.21875 44.703125 73.484375 
Q 48.484375 72.75 52.59375 71.296875 
z
" id="DejaVuSans-54"/>
       </defs>
       <use xlink:href="#DejaVuSans-54"/>
       <use x="63.623047" xlink:href="#DejaVuSans-48"/>
      </g>
     </g>
    </g>
    <g id="xtick_5">
     <g id="line2d_5">
      <g>
       <use style="stroke:#000000;stroke-width:0.8;" x="246.961098" xlink:href="#m24fe29006c" y="330.6528"/>
      </g>
     </g>
     <g id="text_5">
      <!-- 80 -->
      <g transform="translate(240.598598 345.251238)scale(0.1 -0.1)">
       <defs>
        <path d="M 31.78125 34.625 
Q 24.75 34.625 20.71875 30.859375 
Q 16.703125 27.09375 16.703125 20.515625 
Q 16.703125 13.921875 20.71875 10.15625 
Q 24.75 6.390625 31.78125 6.390625 
Q 38.8125 6.390625 42.859375 10.171875 
Q 46.921875 13.96875 46.921875 20.515625 
Q 46.921875 27.09375 42.890625 30.859375 
Q 38.875 34.625 31.78125 34.625 
z
M 21.921875 38.8125 
Q 15.578125 40.375 12.03125 44.71875 
Q 8.5 49.078125 8.5 55.328125 
Q 8.5 64.0625 14.71875 69.140625 
Q 20.953125 74.21875 31.78125 74.21875 
Q 42.671875 74.21875 48.875 69.140625 
Q 55.078125 64.0625 55.078125 55.328125 
Q 55.078125 49.078125 51.53125 44.71875 
Q 48 40.375 41.703125 38.8125 
Q 48.828125 37.15625 52.796875 32.3125 
Q 56.78125 27.484375 56.78125 20.515625 
Q 56.78125 9.90625 50.3125 4.234375 
Q 43.84375 -1.421875 31.78125 -1.421875 
Q 19.734375 -1.421875 13.25 4.234375 
Q 6.78125 9.90625 6.78125 20.515625 
Q 6.78125 27.484375 10.78125 32.3125 
Q 14.796875 37.15625 21.921875 38.8125 
z
M 18.3125 54.390625 
Q 18.3125 48.734375 21.84375 45.5625 
Q 25.390625 42.390625 31.78125 42.390625 
Q 38.140625 42.390625 41.71875 45.5625 
Q 45.3125 48.734375 45.3125 54.390625 
Q 45.3125 60.0625 41.71875 63.234375 
Q 38.140625 66.40625 31.78125 66.40625 
Q 25.390625 66.40625 21.84375 63.234375 
Q 18.3125 60.0625 18.3125 54.390625 
z
" id="DejaVuSans-56"/>
       </defs>
       <use xlink:href="#DejaVuSans-56"/>
       <use x="63.623047" xlink:href="#DejaVuSans-48"/>
      </g>
     </g>
    </g>
    <g id="xtick_6">
     <g id="line2d_6">
      <g>
       <use style="stroke:#000000;stroke-width:0.8;" x="280.882447" xlink:href="#m24fe29006c" y="330.6528"/>
      </g>
     </g>
     <g id="text_6">
      <!-- 100 -->
      <g transform="translate(271.338697 345.251238)scale(0.1 -0.1)">
       <defs>
        <path d="M 12.40625 8.296875 
L 28.515625 8.296875 
L 28.515625 63.921875 
L 10.984375 60.40625 
L 10.984375 69.390625 
L 28.421875 72.90625 
L 38.28125 72.90625 
L 38.28125 8.296875 
L 54.390625 8.296875 
L 54.390625 0 
L 12.40625 0 
z
" id="DejaVuSans-49"/>
       </defs>
       <use xlink:href="#DejaVuSans-49"/>
       <use x="63.623047" xlink:href="#DejaVuSans-48"/>
       <use x="127.246094" xlink:href="#DejaVuSans-48"/>
      </g>
     </g>
    </g>
    <g id="xtick_7">
     <g id="line2d_7">
      <g>
       <use style="stroke:#000000;stroke-width:0.8;" x="314.803796" xlink:href="#m24fe29006c" y="330.6528"/>
      </g>
     </g>
     <g id="text_7">
      <!-- 120 -->
      <g transform="translate(305.260046 345.251238)scale(0.1 -0.1)">
       <use xlink:href="#DejaVuSans-49"/>
       <use x="63.623047" xlink:href="#DejaVuSans-50"/>
       <use x="127.246094" xlink:href="#DejaVuSans-48"/>
      </g>
     </g>
    </g>
    <g id="xtick_8">
     <g id="line2d_8">
      <g>
       <use style="stroke:#000000;stroke-width:0.8;" x="348.725145" xlink:href="#m24fe29006c" y="330.6528"/>
      </g>
     </g>
     <g id="text_8">
      <!-- 140 -->
      <g transform="translate(339.181395 345.251238)scale(0.1 -0.1)">
       <use xlink:href="#DejaVuSans-49"/>
       <use x="63.623047" xlink:href="#DejaVuSans-52"/>
       <use x="127.246094" xlink:href="#DejaVuSans-48"/>
      </g>
     </g>
    </g>
    <g id="text_9">
     <!-- epoch -->
     <g transform="translate(222.404602 358.929362)scale(0.1 -0.1)">
      <defs>
       <path d="M 56.203125 29.59375 
L 56.203125 25.203125 
L 14.890625 25.203125 
Q 15.484375 15.921875 20.484375 11.0625 
Q 25.484375 6.203125 34.421875 6.203125 
Q 39.59375 6.203125 44.453125 7.46875 
Q 49.3125 8.734375 54.109375 11.28125 
L 54.109375 2.78125 
Q 49.265625 0.734375 44.1875 -0.34375 
Q 39.109375 -1.421875 33.890625 -1.421875 
Q 20.796875 -1.421875 13.15625 6.1875 
Q 5.515625 13.8125 5.515625 26.8125 
Q 5.515625 40.234375 12.765625 48.109375 
Q 20.015625 56 32.328125 56 
Q 43.359375 56 49.78125 48.890625 
Q 56.203125 41.796875 56.203125 29.59375 
z
M 47.21875 32.234375 
Q 47.125 39.59375 43.09375 43.984375 
Q 39.0625 48.390625 32.421875 48.390625 
Q 24.90625 48.390625 20.390625 44.140625 
Q 15.875 39.890625 15.1875 32.171875 
z
" id="DejaVuSans-101"/>
       <path d="M 18.109375 8.203125 
L 18.109375 -20.796875 
L 9.078125 -20.796875 
L 9.078125 54.6875 
L 18.109375 54.6875 
L 18.109375 46.390625 
Q 20.953125 51.265625 25.265625 53.625 
Q 29.59375 56 35.59375 56 
Q 45.5625 56 51.78125 48.09375 
Q 58.015625 40.1875 58.015625 27.296875 
Q 58.015625 14.40625 51.78125 6.484375 
Q 45.5625 -1.421875 35.59375 -1.421875 
Q 29.59375 -1.421875 25.265625 0.953125 
Q 20.953125 3.328125 18.109375 8.203125 
z
M 48.6875 27.296875 
Q 48.6875 37.203125 44.609375 42.84375 
Q 40.53125 48.484375 33.40625 48.484375 
Q 26.265625 48.484375 22.1875 42.84375 
Q 18.109375 37.203125 18.109375 27.296875 
Q 18.109375 17.390625 22.1875 11.75 
Q 26.265625 6.109375 33.40625 6.109375 
Q 40.53125 6.109375 44.609375 11.75 
Q 48.6875 17.390625 48.6875 27.296875 
z
" id="DejaVuSans-112"/>
       <path d="M 30.609375 48.390625 
Q 23.390625 48.390625 19.1875 42.75 
Q 14.984375 37.109375 14.984375 27.296875 
Q 14.984375 17.484375 19.15625 11.84375 
Q 23.34375 6.203125 30.609375 6.203125 
Q 37.796875 6.203125 41.984375 11.859375 
Q 46.1875 17.53125 46.1875 27.296875 
Q 46.1875 37.015625 41.984375 42.703125 
Q 37.796875 48.390625 30.609375 48.390625 
z
M 30.609375 56 
Q 42.328125 56 49.015625 48.375 
Q 55.71875 40.765625 55.71875 27.296875 
Q 55.71875 13.875 49.015625 6.21875 
Q 42.328125 -1.421875 30.609375 -1.421875 
Q 18.84375 -1.421875 12.171875 6.21875 
Q 5.515625 13.875 5.515625 27.296875 
Q 5.515625 40.765625 12.171875 48.375 
Q 18.84375 56 30.609375 56 
z
" id="DejaVuSans-111"/>
       <path d="M 48.78125 52.59375 
L 48.78125 44.1875 
Q 44.96875 46.296875 41.140625 47.34375 
Q 37.3125 48.390625 33.40625 48.390625 
Q 24.65625 48.390625 19.8125 42.84375 
Q 14.984375 37.3125 14.984375 27.296875 
Q 14.984375 17.28125 19.8125 11.734375 
Q 24.65625 6.203125 33.40625 6.203125 
Q 37.3125 6.203125 41.140625 7.25 
Q 44.96875 8.296875 48.78125 10.40625 
L 48.78125 2.09375 
Q 45.015625 0.34375 40.984375 -0.53125 
Q 36.96875 -1.421875 32.421875 -1.421875 
Q 20.0625 -1.421875 12.78125 6.34375 
Q 5.515625 14.109375 5.515625 27.296875 
Q 5.515625 40.671875 12.859375 48.328125 
Q 20.21875 56 33.015625 56 
Q 37.15625 56 41.109375 55.140625 
Q 45.0625 54.296875 48.78125 52.59375 
z
" id="DejaVuSans-99"/>
       <path d="M 54.890625 33.015625 
L 54.890625 0 
L 45.90625 0 
L 45.90625 32.71875 
Q 45.90625 40.484375 42.875 44.328125 
Q 39.84375 48.1875 33.796875 48.1875 
Q 26.515625 48.1875 22.3125 43.546875 
Q 18.109375 38.921875 18.109375 30.90625 
L 18.109375 0 
L 9.078125 0 
L 9.078125 75.984375 
L 18.109375 75.984375 
L 18.109375 46.1875 
Q 21.34375 51.125 25.703125 53.5625 
Q 30.078125 56 35.796875 56 
Q 45.21875 56 50.046875 50.171875 
Q 54.890625 44.34375 54.890625 33.015625 
z
" id="DejaVuSans-104"/>
      </defs>
      <use xlink:href="#DejaVuSans-101"/>
      <use x="61.523438" xlink:href="#DejaVuSans-112"/>
      <use x="125" xlink:href="#DejaVuSans-111"/>
      <use x="186.181641" xlink:href="#DejaVuSans-99"/>
      <use x="241.162109" xlink:href="#DejaVuSans-104"/>
     </g>
    </g>
   </g>
   <g id="matplotlib.axis_2">
    <g id="ytick_1">
     <g id="line2d_9">
      <defs>
       <path d="M 0 0 
L -3.5 0 
" id="m5845729000" style="stroke:#000000;stroke-width:0.8;"/>
      </defs>
      <g>
       <use style="stroke:#000000;stroke-width:0.8;" x="98.64" xlink:href="#m5845729000" y="326.749916"/>
      </g>
     </g>
     <g id="text_10">
      <!-- 0.3 -->
      <g transform="translate(75.736875 330.549134)scale(0.1 -0.1)">
       <defs>
        <path d="M 10.6875 12.40625 
L 21 12.40625 
L 21 0 
L 10.6875 0 
z
" id="DejaVuSans-46"/>
        <path d="M 40.578125 39.3125 
Q 47.65625 37.796875 51.625 33 
Q 55.609375 28.21875 55.609375 21.1875 
Q 55.609375 10.40625 48.1875 4.484375 
Q 40.765625 -1.421875 27.09375 -1.421875 
Q 22.515625 -1.421875 17.65625 -0.515625 
Q 12.796875 0.390625 7.625 2.203125 
L 7.625 11.71875 
Q 11.71875 9.328125 16.59375 8.109375 
Q 21.484375 6.890625 26.8125 6.890625 
Q 36.078125 6.890625 40.9375 10.546875 
Q 45.796875 14.203125 45.796875 21.1875 
Q 45.796875 27.640625 41.28125 31.265625 
Q 36.765625 34.90625 28.71875 34.90625 
L 20.21875 34.90625 
L 20.21875 43.015625 
L 29.109375 43.015625 
Q 36.375 43.015625 40.234375 45.921875 
Q 44.09375 48.828125 44.09375 54.296875 
Q 44.09375 59.90625 40.109375 62.90625 
Q 36.140625 65.921875 28.71875 65.921875 
Q 24.65625 65.921875 20.015625 65.03125 
Q 15.375 64.15625 9.8125 62.3125 
L 9.8125 71.09375 
Q 15.4375 72.65625 20.34375 73.4375 
Q 25.25 74.21875 29.59375 74.21875 
Q 40.828125 74.21875 47.359375 69.109375 
Q 53.90625 64.015625 53.90625 55.328125 
Q 53.90625 49.265625 50.4375 45.09375 
Q 46.96875 40.921875 40.578125 39.3125 
z
" id="DejaVuSans-51"/>
       </defs>
       <use xlink:href="#DejaVuSans-48"/>
       <use x="63.623047" xlink:href="#DejaVuSans-46"/>
       <use x="95.410156" xlink:href="#DejaVuSans-51"/>
      </g>
     </g>
    </g>
    <g id="ytick_2">
     <g id="line2d_10">
      <g>
       <use style="stroke:#000000;stroke-width:0.8;" x="98.64" xlink:href="#m5845729000" y="288.29787"/>
      </g>
     </g>
     <g id="text_11">
      <!-- 0.4 -->
      <g transform="translate(75.736875 292.097089)scale(0.1 -0.1)">
       <use xlink:href="#DejaVuSans-48"/>
       <use x="63.623047" xlink:href="#DejaVuSans-46"/>
       <use x="95.410156" xlink:href="#DejaVuSans-52"/>
      </g>
     </g>
    </g>
    <g id="ytick_3">
     <g id="line2d_11">
      <g>
       <use style="stroke:#000000;stroke-width:0.8;" x="98.64" xlink:href="#m5845729000" y="249.845825"/>
      </g>
     </g>
     <g id="text_12">
      <!-- 0.5 -->
      <g transform="translate(75.736875 253.645044)scale(0.1 -0.1)">
       <defs>
        <path d="M 10.796875 72.90625 
L 49.515625 72.90625 
L 49.515625 64.59375 
L 19.828125 64.59375 
L 19.828125 46.734375 
Q 21.96875 47.46875 24.109375 47.828125 
Q 26.265625 48.1875 28.421875 48.1875 
Q 40.625 48.1875 47.75 41.5 
Q 54.890625 34.8125 54.890625 23.390625 
Q 54.890625 11.625 47.5625 5.09375 
Q 40.234375 -1.421875 26.90625 -1.421875 
Q 22.3125 -1.421875 17.546875 -0.640625 
Q 12.796875 0.140625 7.71875 1.703125 
L 7.71875 11.625 
Q 12.109375 9.234375 16.796875 8.0625 
Q 21.484375 6.890625 26.703125 6.890625 
Q 35.15625 6.890625 40.078125 11.328125 
Q 45.015625 15.765625 45.015625 23.390625 
Q 45.015625 31 40.078125 35.4375 
Q 35.15625 39.890625 26.703125 39.890625 
Q 22.75 39.890625 18.8125 39.015625 
Q 14.890625 38.140625 10.796875 36.28125 
z
" id="DejaVuSans-53"/>
       </defs>
       <use xlink:href="#DejaVuSans-48"/>
       <use x="63.623047" xlink:href="#DejaVuSans-46"/>
       <use x="95.410156" xlink:href="#DejaVuSans-53"/>
      </g>
     </g>
    </g>
    <g id="ytick_4">
     <g id="line2d_12">
      <g>
       <use style="stroke:#000000;stroke-width:0.8;" x="98.64" xlink:href="#m5845729000" y="211.39378"/>
      </g>
     </g>
     <g id="text_13">
      <!-- 0.6 -->
      <g transform="translate(75.736875 215.192999)scale(0.1 -0.1)">
       <use xlink:href="#DejaVuSans-48"/>
       <use x="63.623047" xlink:href="#DejaVuSans-46"/>
       <use x="95.410156" xlink:href="#DejaVuSans-54"/>
      </g>
     </g>
    </g>
    <g id="ytick_5">
     <g id="line2d_13">
      <g>
       <use style="stroke:#000000;stroke-width:0.8;" x="98.64" xlink:href="#m5845729000" y="172.941735"/>
      </g>
     </g>
     <g id="text_14">
      <!-- 0.7 -->
      <g transform="translate(75.736875 176.740954)scale(0.1 -0.1)">
       <defs>
        <path d="M 8.203125 72.90625 
L 55.078125 72.90625 
L 55.078125 68.703125 
L 28.609375 0 
L 18.3125 0 
L 43.21875 64.59375 
L 8.203125 64.59375 
z
" id="DejaVuSans-55"/>
       </defs>
       <use xlink:href="#DejaVuSans-48"/>
       <use x="63.623047" xlink:href="#DejaVuSans-46"/>
       <use x="95.410156" xlink:href="#DejaVuSans-55"/>
      </g>
     </g>
    </g>
    <g id="ytick_6">
     <g id="line2d_14">
      <g>
       <use style="stroke:#000000;stroke-width:0.8;" x="98.64" xlink:href="#m5845729000" y="134.48969"/>
      </g>
     </g>
     <g id="text_15">
      <!-- 0.8 -->
      <g transform="translate(75.736875 138.288909)scale(0.1 -0.1)">
       <use xlink:href="#DejaVuSans-48"/>
       <use x="63.623047" xlink:href="#DejaVuSans-46"/>
       <use x="95.410156" xlink:href="#DejaVuSans-56"/>
      </g>
     </g>
    </g>
    <g id="ytick_7">
     <g id="line2d_15">
      <g>
       <use style="stroke:#000000;stroke-width:0.8;" x="98.64" xlink:href="#m5845729000" y="96.037645"/>
      </g>
     </g>
     <g id="text_16">
      <!-- 0.9 -->
      <g transform="translate(75.736875 99.836864)scale(0.1 -0.1)">
       <defs>
        <path d="M 10.984375 1.515625 
L 10.984375 10.5 
Q 14.703125 8.734375 18.5 7.8125 
Q 22.3125 6.890625 25.984375 6.890625 
Q 35.75 6.890625 40.890625 13.453125 
Q 46.046875 20.015625 46.78125 33.40625 
Q 43.953125 29.203125 39.59375 26.953125 
Q 35.25 24.703125 29.984375 24.703125 
Q 19.046875 24.703125 12.671875 31.3125 
Q 6.296875 37.9375 6.296875 49.421875 
Q 6.296875 60.640625 12.9375 67.421875 
Q 19.578125 74.21875 30.609375 74.21875 
Q 43.265625 74.21875 49.921875 64.515625 
Q 56.59375 54.828125 56.59375 36.375 
Q 56.59375 19.140625 48.40625 8.859375 
Q 40.234375 -1.421875 26.421875 -1.421875 
Q 22.703125 -1.421875 18.890625 -0.6875 
Q 15.09375 0.046875 10.984375 1.515625 
z
M 30.609375 32.421875 
Q 37.25 32.421875 41.125 36.953125 
Q 45.015625 41.5 45.015625 49.421875 
Q 45.015625 57.28125 41.125 61.84375 
Q 37.25 66.40625 30.609375 66.40625 
Q 23.96875 66.40625 20.09375 61.84375 
Q 16.21875 57.28125 16.21875 49.421875 
Q 16.21875 41.5 20.09375 36.953125 
Q 23.96875 32.421875 30.609375 32.421875 
z
" id="DejaVuSans-57"/>
       </defs>
       <use xlink:href="#DejaVuSans-48"/>
       <use x="63.623047" xlink:href="#DejaVuSans-46"/>
       <use x="95.410156" xlink:href="#DejaVuSans-57"/>
      </g>
     </g>
    </g>
    <g id="ytick_8">
     <g id="line2d_16">
      <g>
       <use style="stroke:#000000;stroke-width:0.8;" x="98.64" xlink:href="#m5845729000" y="57.5856"/>
      </g>
     </g>
     <g id="text_17">
      <!-- 1.0 -->
      <g transform="translate(75.736875 61.384819)scale(0.1 -0.1)">
       <use xlink:href="#DejaVuSans-49"/>
       <use x="63.623047" xlink:href="#DejaVuSans-46"/>
       <use x="95.410156" xlink:href="#DejaVuSans-48"/>
      </g>
     </g>
    </g>
   </g>
   <g id="line2d_17">
    <path clip-path="url(#p4492686433)" d="M 111.275702 317.6496 
L 112.97177 220.526135 
L 114.667837 172.589265 
L 116.363905 138.014453 
L 118.059972 120.903296 
L 119.75604 107.861649 
L 121.452107 98.472934 
L 123.148175 91.391358 
L 124.844242 85.014731 
L 126.54031 80.048002 
L 128.236377 76.459153 
L 129.932444 73.318901 
L 131.628512 71.3963 
L 133.324579 68.384213 
L 135.020647 67.198602 
L 136.716714 64.795363 
L 140.108849 64.218578 
L 141.804917 62.392101 
L 143.500984 62.776617 
L 145.197051 61.687152 
L 146.893119 60.950162 
L 150.285254 60.052944 
L 151.981321 59.315931 
L 153.677389 59.444118 
L 155.373456 58.707128 
L 158.765591 59.28389 
L 162.157726 58.354631 
L 163.853793 58.354631 
L 165.549861 58.226467 
L 167.245928 58.482818 
L 168.941996 58.514859 
L 170.638063 60.725852 
L 172.334131 59.251849 
L 174.030198 59.219808 
L 175.726265 58.32259 
L 177.422333 58.354631 
L 179.1184 57.873992 
L 180.814468 57.938074 
L 182.510535 57.745828 
L 184.206603 57.80991 
L 185.90267 58.739169 
L 187.598738 58.066262 
L 189.294805 57.777869 
L 192.68694 57.649682 
L 197.775142 57.617641 
L 199.47121 57.777869 
L 201.167277 59.988862 
L 202.863345 61.847357 
L 204.559412 58.963457 
L 206.25548 58.803252 
L 207.951547 58.482818 
L 209.647614 58.482818 
L 211.343682 57.617641 
L 230.000424 57.5856 
L 231.696491 58.034198 
L 233.392559 59.956798 
L 235.088626 62.776617 
L 236.784694 58.899375 
L 238.480761 57.906033 
L 240.176828 57.681723 
L 243.568963 57.5856 
L 258.83357 57.5856 
L 260.529638 57.938074 
L 262.225705 58.675064 
L 263.921773 59.091644 
L 267.313908 59.315931 
L 269.009975 58.130344 
L 270.706042 57.617641 
L 277.490312 57.5856 
L 316.499864 57.617641 
L 318.195931 67.038397 
L 319.891998 61.62307 
L 321.588066 58.066262 
L 323.284133 57.745828 
L 324.980201 57.617641 
L 328.372336 57.5856 
L 352.11728 57.5856 
L 353.813347 59.476159 
L 355.509415 60.277254 
L 357.205482 58.386695 
L 358.90155 57.80991 
L 360.597617 57.841951 
L 362.293685 58.066262 
L 363.989752 57.649682 
L 363.989752 57.649682 
" style="fill:none;stroke:#1f77b4;stroke-linecap:square;stroke-width:1.5;"/>
   </g>
   <g id="line2d_18">
    <path clip-path="url(#p4492686433)" d="M 111.275702 245.231571 
L 112.97177 192.552282 
L 114.667837 166.533072 
L 116.363905 134.361521 
L 118.059972 117.314446 
L 123.148175 96.165818 
L 124.844242 90.526181 
L 126.54031 86.680981 
L 128.236377 85.014731 
L 129.932444 83.604811 
L 131.628512 80.784992 
L 133.324579 75.786245 
L 135.020647 77.196143 
L 136.716714 75.786245 
L 138.412782 74.889027 
L 140.108849 72.581888 
L 141.804917 73.607293 
L 143.500984 75.401706 
L 145.197051 70.402959 
L 146.893119 71.300154 
L 148.589186 69.377554 
L 150.285254 70.146608 
L 151.981321 69.890256 
L 153.677389 69.24939 
L 155.373456 71.043826 
L 157.069524 68.993038 
L 158.765591 69.24939 
L 160.461658 68.864874 
L 162.157726 69.377554 
L 163.853793 67.967656 
L 165.549861 68.352172 
L 167.245928 70.659287 
L 168.941996 68.864874 
L 170.638063 69.121203 
L 172.334131 70.787475 
L 174.030198 71.043826 
L 175.726265 68.608523 
L 177.422333 68.352172 
L 179.1184 68.352172 
L 180.814468 69.633905 
L 182.510535 67.198602 
L 184.206603 67.583141 
L 185.90267 68.352172 
L 187.598738 69.505741 
L 189.294805 68.09582 
L 190.990872 67.583141 
L 192.68694 67.326789 
L 194.383007 67.583141 
L 196.079075 67.967656 
L 197.775142 68.736687 
L 199.47121 69.24939 
L 201.167277 73.479106 
L 202.863345 69.633905 
L 204.559412 68.736687 
L 206.25548 68.224007 
L 207.951547 72.197372 
L 209.647614 66.942274 
L 211.343682 65.276002 
L 214.735817 65.788704 
L 216.431884 65.276002 
L 218.127952 65.788704 
L 219.824019 67.583141 
L 223.216154 64.891486 
L 224.912221 65.404189 
L 226.608289 65.788704 
L 228.304356 65.147837 
L 230.000424 65.019673 
L 231.696491 68.09582 
L 233.392559 72.581888 
L 235.088626 70.146608 
L 236.784694 68.480336 
L 238.480761 65.147837 
L 240.176828 65.532353 
L 241.872896 64.763322 
L 243.568963 65.019673 
L 245.265031 65.019673 
L 246.961098 64.763322 
L 248.657166 65.532353 
L 250.353233 65.019673 
L 252.049301 65.66054 
L 253.745368 65.019673 
L 257.137503 64.763322 
L 258.83357 65.147837 
L 260.529638 66.685922 
L 263.921773 70.531123 
L 265.61784 66.685922 
L 267.313908 68.608523 
L 269.009975 66.814087 
L 270.706042 66.045056 
L 272.40211 66.045056 
L 274.098177 66.17322 
L 275.794245 65.916868 
L 277.490312 66.045056 
L 279.18638 65.66054 
L 280.882447 65.66054 
L 282.578515 65.916868 
L 284.274582 65.404189 
L 285.97065 66.301407 
L 287.666717 65.532353 
L 289.362784 65.404189 
L 291.058852 65.532353 
L 292.754919 65.788704 
L 296.147054 65.532353 
L 297.843122 65.276002 
L 299.539189 65.404189 
L 301.235257 65.404189 
L 302.931324 65.532353 
L 304.627391 65.788704 
L 306.323459 65.404189 
L 311.411661 65.019673 
L 313.107729 65.788704 
L 314.803796 65.404189 
L 316.499864 66.045056 
L 318.195931 76.427112 
L 319.891998 68.09582 
L 321.588066 67.198602 
L 323.284133 65.147837 
L 324.980201 64.763322 
L 326.676268 65.404189 
L 328.372336 65.019673 
L 330.068403 64.763322 
L 331.764471 65.019673 
L 333.460538 65.147837 
L 335.156605 65.66054 
L 336.852673 64.506971 
L 338.54874 64.635135 
L 340.244808 65.019673 
L 341.940875 65.276002 
L 343.636943 65.147837 
L 345.33301 64.891486 
L 348.725145 64.635135 
L 350.421212 65.019673 
L 352.11728 64.506971 
L 353.813347 71.17199 
L 355.509415 70.146608 
L 357.205482 68.224007 
L 358.90155 66.814087 
L 360.597617 67.326789 
L 362.293685 66.17322 
L 363.989752 65.788704 
L 363.989752 65.788704 
" style="fill:none;stroke:#ff7f0e;stroke-linecap:square;stroke-width:1.5;"/>
   </g>
   <g id="patch_3">
    <path d="M 98.64 330.6528 
L 98.64 44.5824 
" style="fill:none;stroke:#000000;stroke-linecap:square;stroke-linejoin:miter;stroke-width:0.8;"/>
   </g>
   <g id="patch_4">
    <path d="M 376.625455 330.6528 
L 376.625455 44.5824 
" style="fill:none;stroke:#000000;stroke-linecap:square;stroke-linejoin:miter;stroke-width:0.8;"/>
   </g>
   <g id="patch_5">
    <path d="M 98.64 330.6528 
L 376.625455 330.6528 
" style="fill:none;stroke:#000000;stroke-linecap:square;stroke-linejoin:miter;stroke-width:0.8;"/>
   </g>
   <g id="patch_6">
    <path d="M 98.64 44.5824 
L 376.625455 44.5824 
" style="fill:none;stroke:#000000;stroke-linecap:square;stroke-linejoin:miter;stroke-width:0.8;"/>
   </g>
   <g id="text_18">
    <!-- Training and Validation Accuracy -->
    <g transform="translate(139.930227 38.5824)scale(0.12 -0.12)">
     <defs>
      <path d="M -0.296875 72.90625 
L 61.375 72.90625 
L 61.375 64.59375 
L 35.5 64.59375 
L 35.5 0 
L 25.59375 0 
L 25.59375 64.59375 
L -0.296875 64.59375 
z
" id="DejaVuSans-84"/>
      <path d="M 41.109375 46.296875 
Q 39.59375 47.171875 37.8125 47.578125 
Q 36.03125 48 33.890625 48 
Q 26.265625 48 22.1875 43.046875 
Q 18.109375 38.09375 18.109375 28.8125 
L 18.109375 0 
L 9.078125 0 
L 9.078125 54.6875 
L 18.109375 54.6875 
L 18.109375 46.1875 
Q 20.953125 51.171875 25.484375 53.578125 
Q 30.03125 56 36.53125 56 
Q 37.453125 56 38.578125 55.875 
Q 39.703125 55.765625 41.0625 55.515625 
z
" id="DejaVuSans-114"/>
      <path d="M 34.28125 27.484375 
Q 23.390625 27.484375 19.1875 25 
Q 14.984375 22.515625 14.984375 16.5 
Q 14.984375 11.71875 18.140625 8.90625 
Q 21.296875 6.109375 26.703125 6.109375 
Q 34.1875 6.109375 38.703125 11.40625 
Q 43.21875 16.703125 43.21875 25.484375 
L 43.21875 27.484375 
z
M 52.203125 31.203125 
L 52.203125 0 
L 43.21875 0 
L 43.21875 8.296875 
Q 40.140625 3.328125 35.546875 0.953125 
Q 30.953125 -1.421875 24.3125 -1.421875 
Q 15.921875 -1.421875 10.953125 3.296875 
Q 6 8.015625 6 15.921875 
Q 6 25.140625 12.171875 29.828125 
Q 18.359375 34.515625 30.609375 34.515625 
L 43.21875 34.515625 
L 43.21875 35.40625 
Q 43.21875 41.609375 39.140625 45 
Q 35.0625 48.390625 27.6875 48.390625 
Q 23 48.390625 18.546875 47.265625 
Q 14.109375 46.140625 10.015625 43.890625 
L 10.015625 52.203125 
Q 14.9375 54.109375 19.578125 55.046875 
Q 24.21875 56 28.609375 56 
Q 40.484375 56 46.34375 49.84375 
Q 52.203125 43.703125 52.203125 31.203125 
z
" id="DejaVuSans-97"/>
      <path d="M 9.421875 54.6875 
L 18.40625 54.6875 
L 18.40625 0 
L 9.421875 0 
z
M 9.421875 75.984375 
L 18.40625 75.984375 
L 18.40625 64.59375 
L 9.421875 64.59375 
z
" id="DejaVuSans-105"/>
      <path d="M 54.890625 33.015625 
L 54.890625 0 
L 45.90625 0 
L 45.90625 32.71875 
Q 45.90625 40.484375 42.875 44.328125 
Q 39.84375 48.1875 33.796875 48.1875 
Q 26.515625 48.1875 22.3125 43.546875 
Q 18.109375 38.921875 18.109375 30.90625 
L 18.109375 0 
L 9.078125 0 
L 9.078125 54.6875 
L 18.109375 54.6875 
L 18.109375 46.1875 
Q 21.34375 51.125 25.703125 53.5625 
Q 30.078125 56 35.796875 56 
Q 45.21875 56 50.046875 50.171875 
Q 54.890625 44.34375 54.890625 33.015625 
z
" id="DejaVuSans-110"/>
      <path d="M 45.40625 27.984375 
Q 45.40625 37.75 41.375 43.109375 
Q 37.359375 48.484375 30.078125 48.484375 
Q 22.859375 48.484375 18.828125 43.109375 
Q 14.796875 37.75 14.796875 27.984375 
Q 14.796875 18.265625 18.828125 12.890625 
Q 22.859375 7.515625 30.078125 7.515625 
Q 37.359375 7.515625 41.375 12.890625 
Q 45.40625 18.265625 45.40625 27.984375 
z
M 54.390625 6.78125 
Q 54.390625 -7.171875 48.1875 -13.984375 
Q 42 -20.796875 29.203125 -20.796875 
Q 24.46875 -20.796875 20.265625 -20.09375 
Q 16.0625 -19.390625 12.109375 -17.921875 
L 12.109375 -9.1875 
Q 16.0625 -11.328125 19.921875 -12.34375 
Q 23.78125 -13.375 27.78125 -13.375 
Q 36.625 -13.375 41.015625 -8.765625 
Q 45.40625 -4.15625 45.40625 5.171875 
L 45.40625 9.625 
Q 42.625 4.78125 38.28125 2.390625 
Q 33.9375 0 27.875 0 
Q 17.828125 0 11.671875 7.65625 
Q 5.515625 15.328125 5.515625 27.984375 
Q 5.515625 40.671875 11.671875 48.328125 
Q 17.828125 56 27.875 56 
Q 33.9375 56 38.28125 53.609375 
Q 42.625 51.21875 45.40625 46.390625 
L 45.40625 54.6875 
L 54.390625 54.6875 
z
" id="DejaVuSans-103"/>
      <path id="DejaVuSans-32"/>
      <path d="M 45.40625 46.390625 
L 45.40625 75.984375 
L 54.390625 75.984375 
L 54.390625 0 
L 45.40625 0 
L 45.40625 8.203125 
Q 42.578125 3.328125 38.25 0.953125 
Q 33.9375 -1.421875 27.875 -1.421875 
Q 17.96875 -1.421875 11.734375 6.484375 
Q 5.515625 14.40625 5.515625 27.296875 
Q 5.515625 40.1875 11.734375 48.09375 
Q 17.96875 56 27.875 56 
Q 33.9375 56 38.25 53.625 
Q 42.578125 51.265625 45.40625 46.390625 
z
M 14.796875 27.296875 
Q 14.796875 17.390625 18.875 11.75 
Q 22.953125 6.109375 30.078125 6.109375 
Q 37.203125 6.109375 41.296875 11.75 
Q 45.40625 17.390625 45.40625 27.296875 
Q 45.40625 37.203125 41.296875 42.84375 
Q 37.203125 48.484375 30.078125 48.484375 
Q 22.953125 48.484375 18.875 42.84375 
Q 14.796875 37.203125 14.796875 27.296875 
z
" id="DejaVuSans-100"/>
      <path d="M 28.609375 0 
L 0.78125 72.90625 
L 11.078125 72.90625 
L 34.1875 11.53125 
L 57.328125 72.90625 
L 67.578125 72.90625 
L 39.796875 0 
z
" id="DejaVuSans-86"/>
      <path d="M 9.421875 75.984375 
L 18.40625 75.984375 
L 18.40625 0 
L 9.421875 0 
z
" id="DejaVuSans-108"/>
      <path d="M 18.3125 70.21875 
L 18.3125 54.6875 
L 36.8125 54.6875 
L 36.8125 47.703125 
L 18.3125 47.703125 
L 18.3125 18.015625 
Q 18.3125 11.328125 20.140625 9.421875 
Q 21.96875 7.515625 27.59375 7.515625 
L 36.8125 7.515625 
L 36.8125 0 
L 27.59375 0 
Q 17.1875 0 13.234375 3.875 
Q 9.28125 7.765625 9.28125 18.015625 
L 9.28125 47.703125 
L 2.6875 47.703125 
L 2.6875 54.6875 
L 9.28125 54.6875 
L 9.28125 70.21875 
z
" id="DejaVuSans-116"/>
      <path d="M 34.1875 63.1875 
L 20.796875 26.90625 
L 47.609375 26.90625 
z
M 28.609375 72.90625 
L 39.796875 72.90625 
L 67.578125 0 
L 57.328125 0 
L 50.6875 18.703125 
L 17.828125 18.703125 
L 11.1875 0 
L 0.78125 0 
z
" id="DejaVuSans-65"/>
      <path d="M 8.5 21.578125 
L 8.5 54.6875 
L 17.484375 54.6875 
L 17.484375 21.921875 
Q 17.484375 14.15625 20.5 10.265625 
Q 23.53125 6.390625 29.59375 6.390625 
Q 36.859375 6.390625 41.078125 11.03125 
Q 45.3125 15.671875 45.3125 23.6875 
L 45.3125 54.6875 
L 54.296875 54.6875 
L 54.296875 0 
L 45.3125 0 
L 45.3125 8.40625 
Q 42.046875 3.421875 37.71875 1 
Q 33.40625 -1.421875 27.6875 -1.421875 
Q 18.265625 -1.421875 13.375 4.4375 
Q 8.5 10.296875 8.5 21.578125 
z
M 31.109375 56 
z
" id="DejaVuSans-117"/>
      <path d="M 32.171875 -5.078125 
Q 28.375 -14.84375 24.75 -17.8125 
Q 21.140625 -20.796875 15.09375 -20.796875 
L 7.90625 -20.796875 
L 7.90625 -13.28125 
L 13.1875 -13.28125 
Q 16.890625 -13.28125 18.9375 -11.515625 
Q 21 -9.765625 23.484375 -3.21875 
L 25.09375 0.875 
L 2.984375 54.6875 
L 12.5 54.6875 
L 29.59375 11.921875 
L 46.6875 54.6875 
L 56.203125 54.6875 
z
" id="DejaVuSans-121"/>
     </defs>
     <use xlink:href="#DejaVuSans-84"/>
     <use x="46.333984" xlink:href="#DejaVuSans-114"/>
     <use x="87.447266" xlink:href="#DejaVuSans-97"/>
     <use x="148.726562" xlink:href="#DejaVuSans-105"/>
     <use x="176.509766" xlink:href="#DejaVuSans-110"/>
     <use x="239.888672" xlink:href="#DejaVuSans-105"/>
     <use x="267.671875" xlink:href="#DejaVuSans-110"/>
     <use x="331.050781" xlink:href="#DejaVuSans-103"/>
     <use x="394.527344" xlink:href="#DejaVuSans-32"/>
     <use x="426.314453" xlink:href="#DejaVuSans-97"/>
     <use x="487.59375" xlink:href="#DejaVuSans-110"/>
     <use x="550.972656" xlink:href="#DejaVuSans-100"/>
     <use x="614.449219" xlink:href="#DejaVuSans-32"/>
     <use x="646.236328" xlink:href="#DejaVuSans-86"/>
     <use x="706.894531" xlink:href="#DejaVuSans-97"/>
     <use x="768.173828" xlink:href="#DejaVuSans-108"/>
     <use x="795.957031" xlink:href="#DejaVuSans-105"/>
     <use x="823.740234" xlink:href="#DejaVuSans-100"/>
     <use x="887.216797" xlink:href="#DejaVuSans-97"/>
     <use x="948.496094" xlink:href="#DejaVuSans-116"/>
     <use x="987.705078" xlink:href="#DejaVuSans-105"/>
     <use x="1015.488281" xlink:href="#DejaVuSans-111"/>
     <use x="1076.669922" xlink:href="#DejaVuSans-110"/>
     <use x="1140.048828" xlink:href="#DejaVuSans-32"/>
     <use x="1171.835938" xlink:href="#DejaVuSans-65"/>
     <use x="1238.494141" xlink:href="#DejaVuSans-99"/>
     <use x="1293.474609" xlink:href="#DejaVuSans-99"/>
     <use x="1348.455078" xlink:href="#DejaVuSans-117"/>
     <use x="1411.833984" xlink:href="#DejaVuSans-114"/>
     <use x="1452.947266" xlink:href="#DejaVuSans-97"/>
     <use x="1514.226562" xlink:href="#DejaVuSans-99"/>
     <use x="1569.207031" xlink:href="#DejaVuSans-121"/>
    </g>
   </g>
   <g id="legend_1">
    <g id="patch_7">
     <path d="M 239.40983 325.6528 
L 369.625455 325.6528 
Q 371.625455 325.6528 371.625455 323.6528 
L 371.625455 295.29655 
Q 371.625455 293.29655 369.625455 293.29655 
L 239.40983 293.29655 
Q 237.40983 293.29655 237.40983 295.29655 
L 237.40983 323.6528 
Q 237.40983 325.6528 239.40983 325.6528 
z
" style="fill:#ffffff;opacity:0.8;stroke:#cccccc;stroke-linejoin:miter;"/>
    </g>
    <g id="line2d_19">
     <path d="M 241.40983 301.394987 
L 261.40983 301.394987 
" style="fill:none;stroke:#1f77b4;stroke-linecap:square;stroke-width:1.5;"/>
    </g>
    <g id="line2d_20"/>
    <g id="text_19">
     <!-- Training Accuracy -->
     <g transform="translate(269.40983 304.894987)scale(0.1 -0.1)">
      <use xlink:href="#DejaVuSans-84"/>
      <use x="46.333984" xlink:href="#DejaVuSans-114"/>
      <use x="87.447266" xlink:href="#DejaVuSans-97"/>
      <use x="148.726562" xlink:href="#DejaVuSans-105"/>
      <use x="176.509766" xlink:href="#DejaVuSans-110"/>
      <use x="239.888672" xlink:href="#DejaVuSans-105"/>
      <use x="267.671875" xlink:href="#DejaVuSans-110"/>
      <use x="331.050781" xlink:href="#DejaVuSans-103"/>
      <use x="394.527344" xlink:href="#DejaVuSans-32"/>
      <use x="426.314453" xlink:href="#DejaVuSans-65"/>
      <use x="492.972656" xlink:href="#DejaVuSans-99"/>
      <use x="547.953125" xlink:href="#DejaVuSans-99"/>
      <use x="602.933594" xlink:href="#DejaVuSans-117"/>
      <use x="666.3125" xlink:href="#DejaVuSans-114"/>
      <use x="707.425781" xlink:href="#DejaVuSans-97"/>
      <use x="768.705078" xlink:href="#DejaVuSans-99"/>
      <use x="823.685547" xlink:href="#DejaVuSans-121"/>
     </g>
    </g>
    <g id="line2d_21">
     <path d="M 241.40983 316.073112 
L 261.40983 316.073112 
" style="fill:none;stroke:#ff7f0e;stroke-linecap:square;stroke-width:1.5;"/>
    </g>
    <g id="line2d_22"/>
    <g id="text_20">
     <!-- Validation Accuracy -->
     <g transform="translate(269.40983 319.573112)scale(0.1 -0.1)">
      <use xlink:href="#DejaVuSans-86"/>
      <use x="60.658203" xlink:href="#DejaVuSans-97"/>
      <use x="121.9375" xlink:href="#DejaVuSans-108"/>
      <use x="149.720703" xlink:href="#DejaVuSans-105"/>
      <use x="177.503906" xlink:href="#DejaVuSans-100"/>
      <use x="240.980469" xlink:href="#DejaVuSans-97"/>
      <use x="302.259766" xlink:href="#DejaVuSans-116"/>
      <use x="341.46875" xlink:href="#DejaVuSans-105"/>
      <use x="369.251953" xlink:href="#DejaVuSans-111"/>
      <use x="430.433594" xlink:href="#DejaVuSans-110"/>
      <use x="493.8125" xlink:href="#DejaVuSans-32"/>
      <use x="525.599609" xlink:href="#DejaVuSans-65"/>
      <use x="592.257812" xlink:href="#DejaVuSans-99"/>
      <use x="647.238281" xlink:href="#DejaVuSans-99"/>
      <use x="702.21875" xlink:href="#DejaVuSans-117"/>
      <use x="765.597656" xlink:href="#DejaVuSans-114"/>
      <use x="806.710938" xlink:href="#DejaVuSans-97"/>
      <use x="867.990234" xlink:href="#DejaVuSans-99"/>
      <use x="922.970703" xlink:href="#DejaVuSans-121"/>
     </g>
    </g>
   </g>
  </g>
  <g id="axes_2">
   <g id="patch_8">
    <path d="M 432.222545 330.6528 
L 710.208 330.6528 
L 710.208 44.5824 
L 432.222545 44.5824 
z
" style="fill:#ffffff;"/>
   </g>
   <g id="matplotlib.axis_3">
    <g id="xtick_9">
     <g id="line2d_23">
      <g>
       <use style="stroke:#000000;stroke-width:0.8;" x="444.858248" xlink:href="#m24fe29006c" y="330.6528"/>
      </g>
     </g>
     <g id="text_21">
      <!-- 0 -->
      <g transform="translate(441.676998 345.251238)scale(0.1 -0.1)">
       <use xlink:href="#DejaVuSans-48"/>
      </g>
     </g>
    </g>
    <g id="xtick_10">
     <g id="line2d_24">
      <g>
       <use style="stroke:#000000;stroke-width:0.8;" x="478.779597" xlink:href="#m24fe29006c" y="330.6528"/>
      </g>
     </g>
     <g id="text_22">
      <!-- 20 -->
      <g transform="translate(472.417097 345.251238)scale(0.1 -0.1)">
       <use xlink:href="#DejaVuSans-50"/>
       <use x="63.623047" xlink:href="#DejaVuSans-48"/>
      </g>
     </g>
    </g>
    <g id="xtick_11">
     <g id="line2d_25">
      <g>
       <use style="stroke:#000000;stroke-width:0.8;" x="512.700946" xlink:href="#m24fe29006c" y="330.6528"/>
      </g>
     </g>
     <g id="text_23">
      <!-- 40 -->
      <g transform="translate(506.338446 345.251238)scale(0.1 -0.1)">
       <use xlink:href="#DejaVuSans-52"/>
       <use x="63.623047" xlink:href="#DejaVuSans-48"/>
      </g>
     </g>
    </g>
    <g id="xtick_12">
     <g id="line2d_26">
      <g>
       <use style="stroke:#000000;stroke-width:0.8;" x="546.622295" xlink:href="#m24fe29006c" y="330.6528"/>
      </g>
     </g>
     <g id="text_24">
      <!-- 60 -->
      <g transform="translate(540.259795 345.251238)scale(0.1 -0.1)">
       <use xlink:href="#DejaVuSans-54"/>
       <use x="63.623047" xlink:href="#DejaVuSans-48"/>
      </g>
     </g>
    </g>
    <g id="xtick_13">
     <g id="line2d_27">
      <g>
       <use style="stroke:#000000;stroke-width:0.8;" x="580.543644" xlink:href="#m24fe29006c" y="330.6528"/>
      </g>
     </g>
     <g id="text_25">
      <!-- 80 -->
      <g transform="translate(574.181144 345.251238)scale(0.1 -0.1)">
       <use xlink:href="#DejaVuSans-56"/>
       <use x="63.623047" xlink:href="#DejaVuSans-48"/>
      </g>
     </g>
    </g>
    <g id="xtick_14">
     <g id="line2d_28">
      <g>
       <use style="stroke:#000000;stroke-width:0.8;" x="614.464993" xlink:href="#m24fe29006c" y="330.6528"/>
      </g>
     </g>
     <g id="text_26">
      <!-- 100 -->
      <g transform="translate(604.921243 345.251238)scale(0.1 -0.1)">
       <use xlink:href="#DejaVuSans-49"/>
       <use x="63.623047" xlink:href="#DejaVuSans-48"/>
       <use x="127.246094" xlink:href="#DejaVuSans-48"/>
      </g>
     </g>
    </g>
    <g id="xtick_15">
     <g id="line2d_29">
      <g>
       <use style="stroke:#000000;stroke-width:0.8;" x="648.386342" xlink:href="#m24fe29006c" y="330.6528"/>
      </g>
     </g>
     <g id="text_27">
      <!-- 120 -->
      <g transform="translate(638.842592 345.251238)scale(0.1 -0.1)">
       <use xlink:href="#DejaVuSans-49"/>
       <use x="63.623047" xlink:href="#DejaVuSans-50"/>
       <use x="127.246094" xlink:href="#DejaVuSans-48"/>
      </g>
     </g>
    </g>
    <g id="xtick_16">
     <g id="line2d_30">
      <g>
       <use style="stroke:#000000;stroke-width:0.8;" x="682.30769" xlink:href="#m24fe29006c" y="330.6528"/>
      </g>
     </g>
     <g id="text_28">
      <!-- 140 -->
      <g transform="translate(672.76394 345.251238)scale(0.1 -0.1)">
       <use xlink:href="#DejaVuSans-49"/>
       <use x="63.623047" xlink:href="#DejaVuSans-52"/>
       <use x="127.246094" xlink:href="#DejaVuSans-48"/>
      </g>
     </g>
    </g>
    <g id="text_29">
     <!-- epoch -->
     <g transform="translate(555.987148 358.929362)scale(0.1 -0.1)">
      <use xlink:href="#DejaVuSans-101"/>
      <use x="61.523438" xlink:href="#DejaVuSans-112"/>
      <use x="125" xlink:href="#DejaVuSans-111"/>
      <use x="186.181641" xlink:href="#DejaVuSans-99"/>
      <use x="241.162109" xlink:href="#DejaVuSans-104"/>
     </g>
    </g>
   </g>
   <g id="matplotlib.axis_4">
    <g id="ytick_9">
     <g id="line2d_31">
      <g>
       <use style="stroke:#000000;stroke-width:0.8;" x="432.222545" xlink:href="#m5845729000" y="317.670426"/>
      </g>
     </g>
     <g id="text_30">
      <!-- 0.0 -->
      <g transform="translate(409.31942 321.469644)scale(0.1 -0.1)">
       <use xlink:href="#DejaVuSans-48"/>
       <use x="63.623047" xlink:href="#DejaVuSans-46"/>
       <use x="95.410156" xlink:href="#DejaVuSans-48"/>
      </g>
     </g>
    </g>
    <g id="ytick_10">
     <g id="line2d_32">
      <g>
       <use style="stroke:#000000;stroke-width:0.8;" x="432.222545" xlink:href="#m5845729000" y="258.896594"/>
      </g>
     </g>
     <g id="text_31">
      <!-- 0.5 -->
      <g transform="translate(409.31942 262.695813)scale(0.1 -0.1)">
       <use xlink:href="#DejaVuSans-48"/>
       <use x="63.623047" xlink:href="#DejaVuSans-46"/>
       <use x="95.410156" xlink:href="#DejaVuSans-53"/>
      </g>
     </g>
    </g>
    <g id="ytick_11">
     <g id="line2d_33">
      <g>
       <use style="stroke:#000000;stroke-width:0.8;" x="432.222545" xlink:href="#m5845729000" y="200.122762"/>
      </g>
     </g>
     <g id="text_32">
      <!-- 1.0 -->
      <g transform="translate(409.31942 203.921981)scale(0.1 -0.1)">
       <use xlink:href="#DejaVuSans-49"/>
       <use x="63.623047" xlink:href="#DejaVuSans-46"/>
       <use x="95.410156" xlink:href="#DejaVuSans-48"/>
      </g>
     </g>
    </g>
    <g id="ytick_12">
     <g id="line2d_34">
      <g>
       <use style="stroke:#000000;stroke-width:0.8;" x="432.222545" xlink:href="#m5845729000" y="141.34893"/>
      </g>
     </g>
     <g id="text_33">
      <!-- 1.5 -->
      <g transform="translate(409.31942 145.148149)scale(0.1 -0.1)">
       <use xlink:href="#DejaVuSans-49"/>
       <use x="63.623047" xlink:href="#DejaVuSans-46"/>
       <use x="95.410156" xlink:href="#DejaVuSans-53"/>
      </g>
     </g>
    </g>
    <g id="ytick_13">
     <g id="line2d_35">
      <g>
       <use style="stroke:#000000;stroke-width:0.8;" x="432.222545" xlink:href="#m5845729000" y="82.575099"/>
      </g>
     </g>
     <g id="text_34">
      <!-- 2.0 -->
      <g transform="translate(409.31942 86.374317)scale(0.1 -0.1)">
       <use xlink:href="#DejaVuSans-50"/>
       <use x="63.623047" xlink:href="#DejaVuSans-46"/>
       <use x="95.410156" xlink:href="#DejaVuSans-48"/>
      </g>
     </g>
    </g>
   </g>
   <g id="line2d_36">
    <path clip-path="url(#p81fb556fc9)" d="M 444.858248 57.5856 
L 446.554315 145.581377 
L 448.250383 192.815043 
L 449.94645 226.377556 
L 451.642518 247.849827 
L 453.338585 261.93757 
L 455.034653 272.196573 
L 456.73072 280.562067 
L 458.426788 286.300947 
L 461.818922 295.262988 
L 466.907125 303.03547 
L 468.603192 304.966333 
L 470.29926 306.666373 
L 471.995327 307.444791 
L 475.387462 309.972892 
L 477.083529 310.370147 
L 480.475664 311.919528 
L 483.867799 313.033612 
L 485.563867 313.778085 
L 487.259934 313.880952 
L 488.956002 314.490062 
L 490.652069 314.646073 
L 492.348136 314.239344 
L 494.044204 314.982578 
L 495.740271 315.515507 
L 499.132406 315.877887 
L 502.524541 315.565756 
L 504.220609 313.899161 
L 505.916676 315.215598 
L 507.612743 315.201528 
L 509.308811 315.977771 
L 511.004878 316.126947 
L 512.700946 316.601963 
L 514.397013 316.792213 
L 517.789148 316.922412 
L 519.485216 315.972858 
L 522.87735 316.962426 
L 526.269485 317.193091 
L 531.357688 317.253112 
L 533.053755 316.952271 
L 536.44589 313.566871 
L 538.141958 315.813405 
L 541.534092 316.432449 
L 543.23016 316.316597 
L 544.926227 317.28955 
L 548.318362 317.442663 
L 555.102632 317.454824 
L 560.190834 317.537938 
L 563.582969 317.555523 
L 565.279037 317.011242 
L 566.975104 315.267784 
L 568.671172 312.742586 
L 570.367239 316.103939 
L 572.063306 316.98367 
L 573.759374 317.381652 
L 577.151509 317.502375 
L 583.935779 317.583909 
L 592.416116 317.596943 
L 594.112183 317.271803 
L 595.808251 316.322944 
L 597.504318 316.257748 
L 599.200386 315.788205 
L 600.896453 316.155799 
L 602.59252 317.007118 
L 604.288588 317.425183 
L 607.680723 317.591971 
L 644.994207 317.646979 
L 650.082409 317.63518 
L 651.778476 309.015013 
L 653.474544 313.793923 
L 655.170611 316.890009 
L 656.866679 317.3581 
L 658.562746 317.510701 
L 685.699825 317.63802 
L 687.395893 316.046613 
L 689.09196 315.305522 
L 690.788028 316.662134 
L 692.484095 317.32837 
L 694.180163 317.303908 
L 695.87623 317.090823 
L 697.572298 317.442805 
L 697.572298 317.442805 
" style="fill:none;stroke:#1f77b4;stroke-linecap:square;stroke-width:1.5;"/>
   </g>
   <g id="line2d_37">
    <path clip-path="url(#p81fb556fc9)" d="M 444.858248 114.314314 
L 446.554315 169.30236 
L 449.94645 232.898546 
L 451.642518 249.992146 
L 453.338585 261.319963 
L 455.034653 270.93022 
L 456.73072 276.543392 
L 458.426788 283.758504 
L 461.818922 290.552781 
L 463.51499 291.11068 
L 466.907125 297.520696 
L 468.603192 298.48913 
L 470.29926 299.998973 
L 473.691395 302.196253 
L 475.387462 302.482301 
L 477.083529 300.291869 
L 478.779597 304.256729 
L 480.475664 304.072039 
L 482.171732 305.053265 
L 483.867799 305.129025 
L 485.563867 305.459691 
L 487.259934 306.157946 
L 488.956002 305.160032 
L 490.652069 306.000409 
L 492.348136 306.316279 
L 494.044204 306.853986 
L 495.740271 306.638197 
L 497.436339 307.135274 
L 499.132406 306.525254 
L 500.828474 305.732379 
L 502.524541 305.974877 
L 504.220609 306.016548 
L 505.916676 305.06914 
L 507.612743 303.719681 
L 509.308811 307.126356 
L 511.004878 307.122258 
L 512.700946 307.283185 
L 514.397013 305.966765 
L 516.093081 307.395679 
L 517.789148 307.837574 
L 521.181283 305.476019 
L 522.87735 307.262177 
L 524.573418 307.518683 
L 526.269485 307.390007 
L 527.965553 307.590977 
L 529.66162 307.513971 
L 531.357688 306.713912 
L 533.053755 304.493389 
L 534.749823 300.474494 
L 538.141958 306.641867 
L 539.838025 306.685584 
L 541.534092 302.923182 
L 543.23016 307.303897 
L 544.926227 308.370769 
L 546.622295 308.673422 
L 550.01443 308.783879 
L 551.710497 308.536951 
L 553.406565 306.657219 
L 555.102632 308.352841 
L 556.798699 309.013072 
L 558.494767 308.602908 
L 563.582969 308.932167 
L 565.279037 307.107692 
L 566.975104 301.320185 
L 568.671172 304.151971 
L 570.367239 305.020924 
L 572.063306 308.421624 
L 575.455441 308.22566 
L 580.543644 308.725372 
L 582.239711 308.478492 
L 583.935779 308.579692 
L 585.631846 308.505191 
L 587.327913 308.705191 
L 592.416116 308.531835 
L 594.112183 307.156033 
L 595.808251 304.775134 
L 597.504318 303.059966 
L 599.200386 305.507721 
L 600.896453 305.174786 
L 602.59252 306.77846 
L 604.288588 307.063183 
L 605.984655 306.71463 
L 607.680723 306.907306 
L 611.072858 307.59714 
L 614.464993 307.761955 
L 616.16106 307.583719 
L 617.857128 307.819006 
L 619.553195 307.574552 
L 621.249262 308.016833 
L 626.337465 307.852986 
L 628.033532 307.956941 
L 629.7296 307.8288 
L 631.425667 307.81625 
L 633.121735 307.977767 
L 639.906004 307.832338 
L 644.994207 308.014356 
L 646.690274 307.636807 
L 648.386342 307.830676 
L 650.082409 306.285799 
L 651.778476 296.11332 
L 653.474544 305.140093 
L 656.866679 307.476923 
L 660.258814 307.294687 
L 663.650949 307.656621 
L 665.347016 307.413228 
L 670.435218 307.489054 
L 673.827353 307.643244 
L 675.523421 307.531772 
L 678.915556 307.639934 
L 682.30769 307.743165 
L 685.699825 307.574702 
L 687.395893 301.897127 
L 689.09196 302.8552 
L 690.788028 305.368208 
L 692.484095 307.040377 
L 694.180163 305.814984 
L 695.87623 306.831784 
L 697.572298 307.353584 
L 697.572298 307.353584 
" style="fill:none;stroke:#ff7f0e;stroke-linecap:square;stroke-width:1.5;"/>
   </g>
   <g id="patch_9">
    <path d="M 432.222545 330.6528 
L 432.222545 44.5824 
" style="fill:none;stroke:#000000;stroke-linecap:square;stroke-linejoin:miter;stroke-width:0.8;"/>
   </g>
   <g id="patch_10">
    <path d="M 710.208 330.6528 
L 710.208 44.5824 
" style="fill:none;stroke:#000000;stroke-linecap:square;stroke-linejoin:miter;stroke-width:0.8;"/>
   </g>
   <g id="patch_11">
    <path d="M 432.222545 330.6528 
L 710.208 330.6528 
" style="fill:none;stroke:#000000;stroke-linecap:square;stroke-linejoin:miter;stroke-width:0.8;"/>
   </g>
   <g id="patch_12">
    <path d="M 432.222545 44.5824 
L 710.208 44.5824 
" style="fill:none;stroke:#000000;stroke-linecap:square;stroke-linejoin:miter;stroke-width:0.8;"/>
   </g>
   <g id="text_35">
    <!-- Training and Validation Loss -->
    <g transform="translate(487.745898 38.5824)scale(0.12 -0.12)">
     <defs>
      <path d="M 9.8125 72.90625 
L 19.671875 72.90625 
L 19.671875 8.296875 
L 55.171875 8.296875 
L 55.171875 0 
L 9.8125 0 
z
" id="DejaVuSans-76"/>
      <path d="M 44.28125 53.078125 
L 44.28125 44.578125 
Q 40.484375 46.53125 36.375 47.5 
Q 32.28125 48.484375 27.875 48.484375 
Q 21.1875 48.484375 17.84375 46.4375 
Q 14.5 44.390625 14.5 40.28125 
Q 14.5 37.15625 16.890625 35.375 
Q 19.28125 33.59375 26.515625 31.984375 
L 29.59375 31.296875 
Q 39.15625 29.25 43.1875 25.515625 
Q 47.21875 21.78125 47.21875 15.09375 
Q 47.21875 7.46875 41.1875 3.015625 
Q 35.15625 -1.421875 24.609375 -1.421875 
Q 20.21875 -1.421875 15.453125 -0.5625 
Q 10.6875 0.296875 5.421875 2 
L 5.421875 11.28125 
Q 10.40625 8.6875 15.234375 7.390625 
Q 20.0625 6.109375 24.8125 6.109375 
Q 31.15625 6.109375 34.5625 8.28125 
Q 37.984375 10.453125 37.984375 14.40625 
Q 37.984375 18.0625 35.515625 20.015625 
Q 33.0625 21.96875 24.703125 23.78125 
L 21.578125 24.515625 
Q 13.234375 26.265625 9.515625 29.90625 
Q 5.8125 33.546875 5.8125 39.890625 
Q 5.8125 47.609375 11.28125 51.796875 
Q 16.75 56 26.8125 56 
Q 31.78125 56 36.171875 55.265625 
Q 40.578125 54.546875 44.28125 53.078125 
z
" id="DejaVuSans-115"/>
     </defs>
     <use xlink:href="#DejaVuSans-84"/>
     <use x="46.333984" xlink:href="#DejaVuSans-114"/>
     <use x="87.447266" xlink:href="#DejaVuSans-97"/>
     <use x="148.726562" xlink:href="#DejaVuSans-105"/>
     <use x="176.509766" xlink:href="#DejaVuSans-110"/>
     <use x="239.888672" xlink:href="#DejaVuSans-105"/>
     <use x="267.671875" xlink:href="#DejaVuSans-110"/>
     <use x="331.050781" xlink:href="#DejaVuSans-103"/>
     <use x="394.527344" xlink:href="#DejaVuSans-32"/>
     <use x="426.314453" xlink:href="#DejaVuSans-97"/>
     <use x="487.59375" xlink:href="#DejaVuSans-110"/>
     <use x="550.972656" xlink:href="#DejaVuSans-100"/>
     <use x="614.449219" xlink:href="#DejaVuSans-32"/>
     <use x="646.236328" xlink:href="#DejaVuSans-86"/>
     <use x="706.894531" xlink:href="#DejaVuSans-97"/>
     <use x="768.173828" xlink:href="#DejaVuSans-108"/>
     <use x="795.957031" xlink:href="#DejaVuSans-105"/>
     <use x="823.740234" xlink:href="#DejaVuSans-100"/>
     <use x="887.216797" xlink:href="#DejaVuSans-97"/>
     <use x="948.496094" xlink:href="#DejaVuSans-116"/>
     <use x="987.705078" xlink:href="#DejaVuSans-105"/>
     <use x="1015.488281" xlink:href="#DejaVuSans-111"/>
     <use x="1076.669922" xlink:href="#DejaVuSans-110"/>
     <use x="1140.048828" xlink:href="#DejaVuSans-32"/>
     <use x="1171.835938" xlink:href="#DejaVuSans-76"/>
     <use x="1225.798828" xlink:href="#DejaVuSans-111"/>
     <use x="1286.980469" xlink:href="#DejaVuSans-115"/>
     <use x="1339.080078" xlink:href="#DejaVuSans-115"/>
    </g>
   </g>
   <g id="legend_2">
    <g id="patch_13">
     <path d="M 596.71425 81.93865 
L 703.208 81.93865 
Q 705.208 81.93865 705.208 79.93865 
L 705.208 51.5824 
Q 705.208 49.5824 703.208 49.5824 
L 596.71425 49.5824 
Q 594.71425 49.5824 594.71425 51.5824 
L 594.71425 79.93865 
Q 594.71425 81.93865 596.71425 81.93865 
z
" style="fill:#ffffff;opacity:0.8;stroke:#cccccc;stroke-linejoin:miter;"/>
    </g>
    <g id="line2d_38">
     <path d="M 598.71425 57.680837 
L 618.71425 57.680837 
" style="fill:none;stroke:#1f77b4;stroke-linecap:square;stroke-width:1.5;"/>
    </g>
    <g id="line2d_39"/>
    <g id="text_36">
     <!-- Training Loss -->
     <g transform="translate(626.71425 61.180837)scale(0.1 -0.1)">
      <use xlink:href="#DejaVuSans-84"/>
      <use x="46.333984" xlink:href="#DejaVuSans-114"/>
      <use x="87.447266" xlink:href="#DejaVuSans-97"/>
      <use x="148.726562" xlink:href="#DejaVuSans-105"/>
      <use x="176.509766" xlink:href="#DejaVuSans-110"/>
      <use x="239.888672" xlink:href="#DejaVuSans-105"/>
      <use x="267.671875" xlink:href="#DejaVuSans-110"/>
      <use x="331.050781" xlink:href="#DejaVuSans-103"/>
      <use x="394.527344" xlink:href="#DejaVuSans-32"/>
      <use x="426.314453" xlink:href="#DejaVuSans-76"/>
      <use x="480.277344" xlink:href="#DejaVuSans-111"/>
      <use x="541.458984" xlink:href="#DejaVuSans-115"/>
      <use x="593.558594" xlink:href="#DejaVuSans-115"/>
     </g>
    </g>
    <g id="line2d_40">
     <path d="M 598.71425 72.358963 
L 618.71425 72.358963 
" style="fill:none;stroke:#ff7f0e;stroke-linecap:square;stroke-width:1.5;"/>
    </g>
    <g id="line2d_41"/>
    <g id="text_37">
     <!-- Validation Loss -->
     <g transform="translate(626.71425 75.858963)scale(0.1 -0.1)">
      <use xlink:href="#DejaVuSans-86"/>
      <use x="60.658203" xlink:href="#DejaVuSans-97"/>
      <use x="121.9375" xlink:href="#DejaVuSans-108"/>
      <use x="149.720703" xlink:href="#DejaVuSans-105"/>
      <use x="177.503906" xlink:href="#DejaVuSans-100"/>
      <use x="240.980469" xlink:href="#DejaVuSans-97"/>
      <use x="302.259766" xlink:href="#DejaVuSans-116"/>
      <use x="341.46875" xlink:href="#DejaVuSans-105"/>
      <use x="369.251953" xlink:href="#DejaVuSans-111"/>
      <use x="430.433594" xlink:href="#DejaVuSans-110"/>
      <use x="493.8125" xlink:href="#DejaVuSans-32"/>
      <use x="525.599609" xlink:href="#DejaVuSans-76"/>
      <use x="579.5625" xlink:href="#DejaVuSans-111"/>
      <use x="640.744141" xlink:href="#DejaVuSans-115"/>
      <use x="692.84375" xlink:href="#DejaVuSans-115"/>
     </g>
    </g>
   </g>
  </g>
  <g id="text_38">
   <!-- LeNet5 Training Record -->
   <g transform="translate(278.731875 22.627275)scale(0.2 -0.2)">
    <defs>
     <path d="M 9.8125 72.90625 
L 23.09375 72.90625 
L 55.421875 11.921875 
L 55.421875 72.90625 
L 64.984375 72.90625 
L 64.984375 0 
L 51.703125 0 
L 19.390625 60.984375 
L 19.390625 0 
L 9.8125 0 
z
" id="DejaVuSans-78"/>
     <path d="M 44.390625 34.1875 
Q 47.5625 33.109375 50.5625 29.59375 
Q 53.5625 26.078125 56.59375 19.921875 
L 66.609375 0 
L 56 0 
L 46.6875 18.703125 
Q 43.0625 26.03125 39.671875 28.421875 
Q 36.28125 30.8125 30.421875 30.8125 
L 19.671875 30.8125 
L 19.671875 0 
L 9.8125 0 
L 9.8125 72.90625 
L 32.078125 72.90625 
Q 44.578125 72.90625 50.734375 67.671875 
Q 56.890625 62.453125 56.890625 51.90625 
Q 56.890625 45.015625 53.6875 40.46875 
Q 50.484375 35.9375 44.390625 34.1875 
z
M 19.671875 64.796875 
L 19.671875 38.921875 
L 32.078125 38.921875 
Q 39.203125 38.921875 42.84375 42.21875 
Q 46.484375 45.515625 46.484375 51.90625 
Q 46.484375 58.296875 42.84375 61.546875 
Q 39.203125 64.796875 32.078125 64.796875 
z
" id="DejaVuSans-82"/>
    </defs>
    <use xlink:href="#DejaVuSans-76"/>
    <use x="53.962891" xlink:href="#DejaVuSans-101"/>
    <use x="115.486328" xlink:href="#DejaVuSans-78"/>
    <use x="190.291016" xlink:href="#DejaVuSans-101"/>
    <use x="251.814453" xlink:href="#DejaVuSans-116"/>
    <use x="291.023438" xlink:href="#DejaVuSans-53"/>
    <use x="354.646484" xlink:href="#DejaVuSans-32"/>
    <use x="386.433594" xlink:href="#DejaVuSans-84"/>
    <use x="432.767578" xlink:href="#DejaVuSans-114"/>
    <use x="473.880859" xlink:href="#DejaVuSans-97"/>
    <use x="535.160156" xlink:href="#DejaVuSans-105"/>
    <use x="562.943359" xlink:href="#DejaVuSans-110"/>
    <use x="626.322266" xlink:href="#DejaVuSans-105"/>
    <use x="654.105469" xlink:href="#DejaVuSans-110"/>
    <use x="717.484375" xlink:href="#DejaVuSans-103"/>
    <use x="780.960938" xlink:href="#DejaVuSans-32"/>
    <use x="812.748047" xlink:href="#DejaVuSans-82"/>
    <use x="877.730469" xlink:href="#DejaVuSans-101"/>
    <use x="939.253906" xlink:href="#DejaVuSans-99"/>
    <use x="994.234375" xlink:href="#DejaVuSans-111"/>
    <use x="1055.416016" xlink:href="#DejaVuSans-114"/>
    <use x="1094.779297" xlink:href="#DejaVuSans-100"/>
   </g>
  </g>
 </g>
 <defs>
  <clipPath id="p4492686433">
   <rect height="286.0704" width="277.985455" x="98.64" y="44.5824"/>
  </clipPath>
  <clipPath id="p81fb556fc9">
   <rect height="286.0704" width="277.985455" x="432.222545" y="44.5824"/>
  </clipPath>
 </defs>
</svg>
