<?xml version="1.0" encoding="utf-8" standalone="no"?>
<!DOCTYPE svg PUBLIC "-//W3C//DTD SVG 1.1//EN"
  "http://www.w3.org/Graphics/SVG/1.1/DTD/svg11.dtd">
<!-- Created with matplotlib (https://matplotlib.org/) -->
<svg height="360pt" version="1.1" viewBox="0 0 576 360" width="576pt" xmlns="http://www.w3.org/2000/svg" xmlns:xlink="http://www.w3.org/1999/xlink">
 <metadata>
  <rdf:RDF xmlns:cc="http://creativecommons.org/ns#" xmlns:dc="http://purl.org/dc/elements/1.1/" xmlns:rdf="http://www.w3.org/1999/02/22-rdf-syntax-ns#">
   <cc:Work>
    <dc:type rdf:resource="http://purl.org/dc/dcmitype/StillImage"/>
    <dc:date>2021-04-19T16:50:55.986962</dc:date>
    <dc:format>image/svg+xml</dc:format>
    <dc:creator>
     <cc:Agent>
      <dc:title>Matplotlib v3.3.3, https://matplotlib.org/</dc:title>
     </cc:Agent>
    </dc:creator>
   </cc:Work>
  </rdf:RDF>
 </metadata>
 <defs>
  <style type="text/css">*{stroke-linecap:butt;stroke-linejoin:round;}</style>
 </defs>
 <g id="figure_1">
  <g id="patch_1">
   <path d="M 0 360 
L 576 360 
L 576 0 
L 0 0 
z
" style="fill:#ffffff;"/>
  </g>
  <g id="axes_1">
   <g id="patch_2">
    <path d="M 66.24 291.6 
L 532.8 291.6 
L 532.8 43.2 
L 66.24 43.2 
z
" style="fill:#ffffff;"/>
   </g>
   <g id="matplotlib.axis_1">
    <g id="xtick_1">
     <g id="line2d_1">
      <defs>
       <path d="M 0 0 
L 0 3.5 
" id="m2a821fc2ed" style="stroke:#000000;stroke-width:0.8;"/>
      </defs>
      <g>
       <use style="stroke:#000000;stroke-width:0.8;" x="66.24" xlink:href="#m2a821fc2ed" y="291.6"/>
      </g>
     </g>
     <g id="text_1">
      <!-- $0$ -->
      <g transform="translate(61.12 310.7575)scale(0.16 -0.16)">
       <defs>
        <path d="M 31.78125 66.40625 
Q 24.171875 66.40625 20.328125 58.90625 
Q 16.5 51.421875 16.5 36.375 
Q 16.5 21.390625 20.328125 13.890625 
Q 24.171875 6.390625 31.78125 6.390625 
Q 39.453125 6.390625 43.28125 13.890625 
Q 47.125 21.390625 47.125 36.375 
Q 47.125 51.421875 43.28125 58.90625 
Q 39.453125 66.40625 31.78125 66.40625 
z
M 31.78125 74.21875 
Q 44.046875 74.21875 50.515625 64.515625 
Q 56.984375 54.828125 56.984375 36.375 
Q 56.984375 17.96875 50.515625 8.265625 
Q 44.046875 -1.421875 31.78125 -1.421875 
Q 19.53125 -1.421875 13.0625 8.265625 
Q 6.59375 17.96875 6.59375 36.375 
Q 6.59375 54.828125 13.0625 64.515625 
Q 19.53125 74.21875 31.78125 74.21875 
z
" id="DejaVuSans-48"/>
       </defs>
       <use transform="translate(0 0.78125)" xlink:href="#DejaVuSans-48"/>
      </g>
     </g>
    </g>
    <g id="xtick_2">
     <g id="line2d_2">
      <g>
       <use style="stroke:#000000;stroke-width:0.8;" x="182.88" xlink:href="#m2a821fc2ed" y="291.6"/>
      </g>
     </g>
     <g id="text_2">
      <!-- $\frac{\pi}{4}$ -->
      <g transform="translate(178.24 312.04)scale(0.16 -0.16)">
       <defs>
        <path d="M 9.125 54.6875 
L 61.53125 54.6875 
L 59.765625 45.703125 
L 52.875 45.703125 
L 46.34375 12.109375 
Q 45.65625 8.59375 46.578125 7.03125 
Q 47.46875 5.515625 50.140625 5.515625 
Q 50.875 5.515625 51.953125 5.671875 
Q 53.078125 5.765625 53.421875 5.8125 
L 52.15625 -0.6875 
Q 50.34375 -1.3125 48.484375 -1.609375 
Q 46.578125 -1.90625 44.78125 -1.90625 
Q 38.921875 -1.90625 37.3125 1.265625 
Q 35.6875 4.5 37.359375 13.09375 
L 43.703125 45.703125 
L 23.53125 45.703125 
L 14.65625 0 
L 5.46875 0 
L 14.359375 45.703125 
L 7.375 45.703125 
z
" id="DejaVuSans-Oblique-960"/>
        <path d="M 37.796875 64.3125 
L 12.890625 25.390625 
L 37.796875 25.390625 
z
M 35.203125 72.90625 
L 47.609375 72.90625 
L 47.609375 25.390625 
L 58.015625 25.390625 
L 58.015625 17.1875 
L 47.609375 17.1875 
L 47.609375 0 
L 37.796875 0 
L 37.796875 17.1875 
L 4.890625 17.1875 
L 4.890625 26.703125 
z
" id="DejaVuSans-52"/>
       </defs>
       <use transform="translate(1 45.71875)scale(0.7)" xlink:href="#DejaVuSans-Oblique-960"/>
       <use transform="translate(0 -37.9)scale(0.7)" xlink:href="#DejaVuSans-52"/>
       <path d="M 0 19.384375 
L 0 25.634375 
L 44.536133 25.634375 
L 44.536133 19.384375 
L 0 19.384375 
z
"/>
      </g>
     </g>
    </g>
    <g id="xtick_3">
     <g id="line2d_3">
      <g>
       <use style="stroke:#000000;stroke-width:0.8;" x="299.52" xlink:href="#m2a821fc2ed" y="291.6"/>
      </g>
     </g>
     <g id="text_3">
      <!-- $\frac{\pi}{2}$ -->
      <g transform="translate(294.88 312.04)scale(0.16 -0.16)">
       <defs>
        <path d="M 19.1875 8.296875 
L 53.609375 8.296875 
L 53.609375 0 
L 7.328125 0 
L 7.328125 8.296875 
Q 12.9375 14.109375 22.625 23.890625 
Q 32.328125 33.6875 34.8125 36.53125 
Q 39.546875 41.84375 41.421875 45.53125 
Q 43.3125 49.21875 43.3125 52.78125 
Q 43.3125 58.59375 39.234375 62.25 
Q 35.15625 65.921875 28.609375 65.921875 
Q 23.96875 65.921875 18.8125 64.3125 
Q 13.671875 62.703125 7.8125 59.421875 
L 7.8125 69.390625 
Q 13.765625 71.78125 18.9375 73 
Q 24.125 74.21875 28.421875 74.21875 
Q 39.75 74.21875 46.484375 68.546875 
Q 53.21875 62.890625 53.21875 53.421875 
Q 53.21875 48.921875 51.53125 44.890625 
Q 49.859375 40.875 45.40625 35.40625 
Q 44.1875 33.984375 37.640625 27.21875 
Q 31.109375 20.453125 19.1875 8.296875 
z
" id="DejaVuSans-50"/>
       </defs>
       <use transform="translate(1 45.71875)scale(0.7)" xlink:href="#DejaVuSans-Oblique-960"/>
       <use transform="translate(0 -38.81875)scale(0.7)" xlink:href="#DejaVuSans-50"/>
       <path d="M 0 19.384375 
L 0 25.634375 
L 44.536133 25.634375 
L 44.536133 19.384375 
L 0 19.384375 
z
"/>
      </g>
     </g>
    </g>
    <g id="xtick_4">
     <g id="line2d_4">
      <g>
       <use style="stroke:#000000;stroke-width:0.8;" x="416.16" xlink:href="#m2a821fc2ed" y="291.6"/>
      </g>
     </g>
     <g id="text_4">
      <!-- $\frac{3\pi}{4}$ -->
      <g transform="translate(408.16 314.28)scale(0.16 -0.16)">
       <defs>
        <path d="M 40.578125 39.3125 
Q 47.65625 37.796875 51.625 33 
Q 55.609375 28.21875 55.609375 21.1875 
Q 55.609375 10.40625 48.1875 4.484375 
Q 40.765625 -1.421875 27.09375 -1.421875 
Q 22.515625 -1.421875 17.65625 -0.515625 
Q 12.796875 0.390625 7.625 2.203125 
L 7.625 11.71875 
Q 11.71875 9.328125 16.59375 8.109375 
Q 21.484375 6.890625 26.8125 6.890625 
Q 36.078125 6.890625 40.9375 10.546875 
Q 45.796875 14.203125 45.796875 21.1875 
Q 45.796875 27.640625 41.28125 31.265625 
Q 36.765625 34.90625 28.71875 34.90625 
L 20.21875 34.90625 
L 20.21875 43.015625 
L 29.109375 43.015625 
Q 36.375 43.015625 40.234375 45.921875 
Q 44.09375 48.828125 44.09375 54.296875 
Q 44.09375 59.90625 40.109375 62.90625 
Q 36.140625 65.921875 28.71875 65.921875 
Q 24.65625 65.921875 20.015625 65.03125 
Q 15.375 64.15625 9.8125 62.3125 
L 9.8125 71.09375 
Q 15.4375 72.65625 20.34375 73.4375 
Q 25.25 74.21875 29.59375 74.21875 
Q 40.828125 74.21875 47.359375 69.109375 
Q 53.90625 64.015625 53.90625 55.328125 
Q 53.90625 49.265625 50.4375 45.09375 
Q 46.96875 40.921875 40.578125 39.3125 
z
" id="DejaVuSans-51"/>
       </defs>
       <use transform="translate(0 46.046875)scale(0.7)" xlink:href="#DejaVuSans-51"/>
       <use transform="translate(44.536133 46.046875)scale(0.7)" xlink:href="#DejaVuSans-Oblique-960"/>
       <use transform="translate(21 -37.571875)scale(0.7)" xlink:href="#DejaVuSans-52"/>
       <path d="M 0 19.7125 
L 0 25.9625 
L 86.679688 25.9625 
L 86.679688 19.7125 
L 0 19.7125 
z
"/>
      </g>
     </g>
    </g>
    <g id="xtick_5">
     <g id="line2d_5">
      <g>
       <use style="stroke:#000000;stroke-width:0.8;" x="532.8" xlink:href="#m2a821fc2ed" y="291.6"/>
      </g>
     </g>
     <g id="text_5">
      <!-- ${\pi}$ -->
      <g transform="translate(527.92 310.7575)scale(0.16 -0.16)">
       <use transform="translate(0 0.3125)" xlink:href="#DejaVuSans-Oblique-960"/>
      </g>
     </g>
    </g>
    <g id="text_6">
     <!-- θ -->
     <g transform="translate(296.460625 332.118437)scale(0.1 -0.1)">
      <defs>
       <path d="M 46.140625 34.671875 
L 15.046875 34.671875 
Q 15.765625 20.0625 19.140625 13.875 
Q 23.34375 6.25 30.609375 6.25 
Q 37.9375 6.25 42 13.921875 
Q 45.5625 20.65625 46.140625 34.671875 
z
M 46 42.96875 
Q 44.625 56.84375 42 61.71875 
Q 37.796875 69.4375 30.609375 69.4375 
Q 23.140625 69.4375 19.1875 61.8125 
Q 16.0625 55.671875 15.140625 42.96875 
z
M 30.609375 76.765625 
Q 42.328125 76.765625 49.03125 66.40625 
Q 55.71875 56.109375 55.71875 37.84375 
Q 55.71875 19.625 49.03125 9.28125 
Q 42.328125 -1.125 30.609375 -1.125 
Q 18.84375 -1.125 12.203125 9.28125 
Q 5.515625 19.625 5.515625 37.84375 
Q 5.515625 56.109375 12.203125 66.40625 
Q 18.84375 76.765625 30.609375 76.765625 
z
" id="DejaVuSans-952"/>
      </defs>
      <use xlink:href="#DejaVuSans-952"/>
     </g>
    </g>
   </g>
   <g id="matplotlib.axis_2">
    <g id="ytick_1">
     <g id="line2d_6">
      <defs>
       <path d="M 0 0 
L -3.5 0 
" id="md9017e44b3" style="stroke:#000000;stroke-width:0.8;"/>
      </defs>
      <g>
       <use style="stroke:#000000;stroke-width:0.8;" x="66.24" xlink:href="#md9017e44b3" y="266.76"/>
      </g>
     </g>
     <g id="text_7">
      <!-- −4 -->
      <g transform="translate(44.497812 270.559219)scale(0.1 -0.1)">
       <defs>
        <path d="M 10.59375 35.5 
L 73.1875 35.5 
L 73.1875 27.203125 
L 10.59375 27.203125 
z
" id="DejaVuSans-8722"/>
       </defs>
       <use xlink:href="#DejaVuSans-8722"/>
       <use x="83.789062" xlink:href="#DejaVuSans-52"/>
      </g>
     </g>
    </g>
    <g id="ytick_2">
     <g id="line2d_7">
      <g>
       <use style="stroke:#000000;stroke-width:0.8;" x="66.24" xlink:href="#md9017e44b3" y="217.08"/>
      </g>
     </g>
     <g id="text_8">
      <!-- −2 -->
      <g transform="translate(44.497812 220.879219)scale(0.1 -0.1)">
       <use xlink:href="#DejaVuSans-8722"/>
       <use x="83.789062" xlink:href="#DejaVuSans-50"/>
      </g>
     </g>
    </g>
    <g id="ytick_3">
     <g id="line2d_8">
      <g>
       <use style="stroke:#000000;stroke-width:0.8;" x="66.24" xlink:href="#md9017e44b3" y="167.4"/>
      </g>
     </g>
     <g id="text_9">
      <!-- 0 -->
      <g transform="translate(52.8775 171.199219)scale(0.1 -0.1)">
       <use xlink:href="#DejaVuSans-48"/>
      </g>
     </g>
    </g>
    <g id="ytick_4">
     <g id="line2d_9">
      <g>
       <use style="stroke:#000000;stroke-width:0.8;" x="66.24" xlink:href="#md9017e44b3" y="117.72"/>
      </g>
     </g>
     <g id="text_10">
      <!-- 2 -->
      <g transform="translate(52.8775 121.519219)scale(0.1 -0.1)">
       <use xlink:href="#DejaVuSans-50"/>
      </g>
     </g>
    </g>
    <g id="ytick_5">
     <g id="line2d_10">
      <g>
       <use style="stroke:#000000;stroke-width:0.8;" x="66.24" xlink:href="#md9017e44b3" y="68.04"/>
      </g>
     </g>
     <g id="text_11">
      <!-- 4 -->
      <g transform="translate(52.8775 71.839219)scale(0.1 -0.1)">
       <use xlink:href="#DejaVuSans-52"/>
      </g>
     </g>
    </g>
    <g id="text_12">
     <!-- ρ -->
     <g transform="translate(38.418125 170.574219)rotate(-90)scale(0.1 -0.1)">
      <defs>
       <path d="M 13.484375 44.921875 
Q 16.453125 49.90625 23.828125 54.296875 
Q 26.703125 56 35.59375 56 
Q 45.5625 56 51.78125 48.09375 
Q 58.015625 40.1875 58.015625 27.296875 
Q 58.015625 14.40625 51.78125 6.484375 
Q 45.5625 -1.421875 35.59375 -1.421875 
Q 29.59375 -1.421875 25.265625 0.953125 
Q 20.953125 3.328125 18.109375 8.203125 
L 18.109375 -20.796875 
L 9.078125 -20.796875 
L 9.078125 26.8125 
Q 9.078125 38.09375 13.484375 44.921875 
z
M 48.6875 27.296875 
Q 48.6875 37.203125 44.609375 42.84375 
Q 40.53125 48.484375 33.40625 48.484375 
Q 26.265625 48.484375 22.1875 42.84375 
Q 18.109375 37.203125 18.109375 27.296875 
Q 18.109375 17.390625 22.1875 11.75 
Q 26.265625 6.109375 33.40625 6.109375 
Q 40.53125 6.109375 44.609375 11.75 
Q 48.6875 17.390625 48.6875 27.296875 
z
" id="DejaVuSans-961"/>
      </defs>
      <use xlink:href="#DejaVuSans-961"/>
     </g>
    </g>
   </g>
   <g id="line2d_11">
    <path clip-path="url(#p13d71c8627)" d="M 66.24 142.56 
L 70.952727 142.572506 
L 75.665455 142.610011 
L 80.378182 142.672477 
L 85.090909 142.759842 
L 89.803636 142.872018 
L 94.516364 143.008891 
L 99.229091 143.170324 
L 103.941818 143.356154 
L 108.654545 143.566195 
L 113.367273 143.800233 
L 118.08 144.058035 
L 122.792727 144.339341 
L 127.505455 144.643866 
L 132.218182 144.971305 
L 136.930909 145.321327 
L 141.643636 145.693581 
L 146.356364 146.087692 
L 151.069091 146.503262 
L 155.781818 146.939874 
L 160.494545 147.397087 
L 165.207273 147.874441 
L 169.92 148.371456 
L 174.632727 148.887631 
L 179.345455 149.422446 
L 184.058182 149.975364 
L 188.770909 150.545826 
L 193.483636 151.133259 
L 198.196364 151.737072 
L 202.909091 152.356655 
L 207.621818 152.991386 
L 212.334545 153.640626 
L 217.047273 154.303719 
L 221.76 154.98 
L 226.472727 155.668787 
L 231.185455 156.369385 
L 235.898182 157.081091 
L 240.610909 157.803187 
L 245.323636 158.534946 
L 250.036364 159.275632 
L 254.749091 160.024498 
L 259.461818 160.78079 
L 264.174545 161.543748 
L 268.887273 162.312602 
L 273.6 163.086579 
L 278.312727 163.864899 
L 283.025455 164.646779 
L 287.738182 165.431431 
L 292.450909 166.218065 
L 297.163636 167.005889 
L 301.876364 167.794111 
L 306.589091 168.581935 
L 311.301818 169.368569 
L 316.014545 170.153221 
L 320.727273 170.935101 
L 325.44 171.713421 
L 330.152727 172.487398 
L 334.865455 173.256252 
L 339.578182 174.01921 
L 344.290909 174.775502 
L 349.003636 175.524368 
L 353.716364 176.265054 
L 358.429091 176.996813 
L 363.141818 177.718909 
L 367.854545 178.430615 
L 372.567273 179.131213 
L 377.28 179.82 
L 381.992727 180.496281 
L 386.705455 181.159374 
L 391.418182 181.808614 
L 396.130909 182.443345 
L 400.843636 183.062928 
L 405.556364 183.666741 
L 410.269091 184.254174 
L 414.981818 184.824636 
L 419.694545 185.377554 
L 424.407273 185.912369 
L 429.12 186.428544 
L 433.832727 186.925559 
L 438.545455 187.402913 
L 443.258182 187.860126 
L 447.970909 188.296738 
L 452.683636 188.712308 
L 457.396364 189.106419 
L 462.109091 189.478673 
L 466.821818 189.828695 
L 471.534545 190.156134 
L 476.247273 190.460659 
L 480.96 190.741965 
L 485.672727 190.999767 
L 490.385455 191.233805 
L 495.098182 191.443846 
L 499.810909 191.629676 
L 504.523636 191.791109 
L 509.236364 191.927982 
L 513.949091 192.040158 
L 518.661818 192.127523 
L 523.374545 192.189989 
L 528.087273 192.227494 
L 532.8 192.24 
" style="fill:none;stroke:#1f77b4;stroke-linecap:square;stroke-width:1.5;"/>
   </g>
   <g id="line2d_12">
    <path clip-path="url(#p13d71c8627)" d="M 66.24 117.72 
L 70.952727 116.95689 
L 75.665455 116.244572 
L 80.378182 115.583763 
L 85.090909 114.975128 
L 89.803636 114.419281 
L 94.516364 113.916781 
L 99.229091 113.468135 
L 103.941818 113.073793 
L 108.654545 112.734152 
L 113.367273 112.449556 
L 118.08 112.22029 
L 122.792727 112.046586 
L 127.505455 111.928617 
L 132.218182 111.866504 
L 136.930909 111.860308 
L 141.643636 111.910036 
L 146.356364 112.015638 
L 151.069091 112.177007 
L 155.781818 112.39398 
L 160.494545 112.666341 
L 165.207273 112.993813 
L 169.92 113.376068 
L 174.632727 113.81272 
L 179.345455 114.30333 
L 184.058182 114.847404 
L 188.770909 115.444394 
L 193.483636 116.093699 
L 198.196364 116.794665 
L 202.909091 117.546587 
L 207.621818 118.348706 
L 212.334545 119.200216 
L 217.047273 120.100259 
L 221.76 121.047929 
L 226.472727 122.042271 
L 231.185455 123.082285 
L 235.898182 124.166923 
L 240.610909 125.295093 
L 245.323636 126.46566 
L 250.036364 127.677443 
L 254.749091 128.929224 
L 259.461818 130.219742 
L 264.174545 131.547697 
L 268.887273 132.911752 
L 273.6 134.310534 
L 278.312727 135.742634 
L 283.025455 137.206611 
L 287.738182 138.70099 
L 292.450909 140.224266 
L 297.163636 141.774906 
L 301.876364 143.351348 
L 306.589091 144.952005 
L 311.301818 146.575265 
L 316.014545 148.219494 
L 320.727273 149.883037 
L 325.44 151.564217 
L 330.152727 153.261343 
L 334.865455 154.972705 
L 339.578182 156.69658 
L 344.290909 158.431233 
L 349.003636 160.174916 
L 353.716364 161.925875 
L 358.429091 163.682345 
L 363.141818 165.442559 
L 367.854545 167.204744 
L 372.567273 168.967125 
L 377.28 170.727929 
L 381.992727 172.485382 
L 386.705455 174.237714 
L 391.418182 175.983161 
L 396.130909 177.719965 
L 400.843636 179.446378 
L 405.556364 181.160662 
L 410.269091 182.86109 
L 414.981818 184.545949 
L 419.694545 186.213544 
L 424.407273 187.862196 
L 429.12 189.490244 
L 433.832727 191.096049 
L 438.545455 192.677993 
L 443.258182 194.234486 
L 447.970909 195.763958 
L 452.683636 197.26487 
L 457.396364 198.73571 
L 462.109091 200.174998 
L 466.821818 201.581285 
L 471.534545 202.953154 
L 476.247273 204.289224 
L 480.96 205.588149 
L 485.672727 206.848622 
L 490.385455 208.069374 
L 495.098182 209.249175 
L 499.810909 210.386838 
L 504.523636 211.481217 
L 509.236364 212.531209 
L 513.949091 213.535759 
L 518.661818 214.493853 
L 523.374545 215.404528 
L 528.087273 216.266866 
L 532.8 217.08 
" style="fill:none;stroke:#0000ff;stroke-linecap:square;stroke-width:1.5;"/>
   </g>
   <g id="line2d_13">
    <path clip-path="url(#p13d71c8627)" d="M 66.24 92.88 
L 70.952727 91.341274 
L 75.665455 89.879133 
L 80.378182 88.495048 
L 85.090909 87.190414 
L 89.803636 85.966545 
L 94.516364 84.824672 
L 99.229091 83.765945 
L 103.941818 82.791431 
L 108.654545 81.90211 
L 113.367273 81.098879 
L 118.08 80.382545 
L 122.792727 79.753831 
L 127.505455 79.213369 
L 132.218182 78.761703 
L 136.930909 78.399289 
L 141.643636 78.126491 
L 146.356364 77.943583 
L 151.069091 77.850751 
L 155.781818 77.848087 
L 160.494545 77.935594 
L 165.207273 78.113185 
L 169.92 78.38068 
L 174.632727 78.737809 
L 179.345455 79.184214 
L 184.058182 79.719445 
L 188.770909 80.342963 
L 193.483636 81.054139 
L 198.196364 81.852259 
L 202.909091 82.736518 
L 207.621818 83.706026 
L 212.334545 84.759806 
L 217.047273 85.896799 
L 221.76 87.115858 
L 226.472727 88.415756 
L 231.185455 89.795185 
L 235.898182 91.252756 
L 240.610909 92.787 
L 245.323636 94.396373 
L 250.036364 96.079255 
L 254.749091 97.83395 
L 259.461818 99.658693 
L 264.174545 101.551645 
L 268.887273 103.510902 
L 273.6 105.534489 
L 278.312727 107.620369 
L 283.025455 109.766442 
L 287.738182 111.970548 
L 292.450909 114.230466 
L 297.163636 116.543922 
L 301.876364 118.908585 
L 306.589091 121.322075 
L 311.301818 123.781962 
L 316.014545 126.285768 
L 320.727273 128.830973 
L 325.44 131.415013 
L 330.152727 134.035287 
L 334.865455 136.689157 
L 339.578182 139.37395 
L 344.290909 142.086963 
L 349.003636 144.825464 
L 353.716364 147.586696 
L 358.429091 150.367877 
L 363.141818 153.166209 
L 367.854545 155.978873 
L 372.567273 158.803037 
L 377.28 161.635858 
L 381.992727 164.474482 
L 386.705455 167.316053 
L 391.418182 170.157708 
L 396.130909 172.996586 
L 400.843636 175.829828 
L 405.556364 178.654583 
L 410.269091 181.468005 
L 414.981818 184.267262 
L 419.694545 187.049535 
L 424.407273 189.812023 
L 429.12 192.551943 
L 433.832727 195.266538 
L 438.545455 197.953074 
L 443.258182 200.608845 
L 447.970909 203.231177 
L 452.683636 205.817431 
L 457.396364 208.365002 
L 462.109091 210.871324 
L 466.821818 213.333874 
L 471.534545 215.750173 
L 476.247273 218.117788 
L 480.96 220.434333 
L 485.672727 222.697478 
L 490.385455 224.904943 
L 495.098182 227.054505 
L 499.810909 229.144 
L 504.523636 231.171325 
L 509.236364 233.134437 
L 513.949091 235.03136 
L 518.661818 236.860183 
L 523.374545 238.619067 
L 528.087273 240.306239 
L 532.8 241.92 
" style="fill:none;stroke:#ff0000;stroke-linecap:square;stroke-width:1.5;"/>
   </g>
   <g id="patch_3">
    <path d="M 66.24 291.6 
L 66.24 43.2 
" style="fill:none;stroke:#000000;stroke-linecap:square;stroke-linejoin:miter;stroke-width:0.8;"/>
   </g>
   <g id="patch_4">
    <path d="M 532.8 291.6 
L 532.8 43.2 
" style="fill:none;stroke:#000000;stroke-linecap:square;stroke-linejoin:miter;stroke-width:0.8;"/>
   </g>
   <g id="patch_5">
    <path d="M 66.24 291.6 
L 532.8 291.6 
" style="fill:none;stroke:#000000;stroke-linecap:square;stroke-linejoin:miter;stroke-width:0.8;"/>
   </g>
   <g id="patch_6">
    <path d="M 66.24 43.2 
L 532.8 43.2 
" style="fill:none;stroke:#000000;stroke-linecap:square;stroke-linejoin:miter;stroke-width:0.8;"/>
   </g>
  </g>
 </g>
 <defs>
  <clipPath id="p13d71c8627">
   <rect height="248.4" width="466.56" x="66.24" y="43.2"/>
  </clipPath>
 </defs>
</svg>
